<svg xmlns="http://www.w3.org/2000/svg" version="1.0" preserveAspectRatio="xMidYMid meet" viewBox="74 0.1 2439 501.9">

<g transform="translate(0.000000,502.000000) scale(0.100000,-0.100000)" fill="#101c33" stroke="none">
<path d="M14632 4828 c-379 -180 -426 -207 -358 -208 15 0 183 74 786 348 l55 25 -30 13 c-16 7 -34 13 -40 13 -5 1 -191 -86 -413 -191z" fill="#101c33"/>
<path d="M14801 4821 c-239 -109 -441 -202 -449 -207 -10 -7 80 -32 307 -84 l321 -74 0 -53 0 -53 74 0 75 0 52 -60 c29 -33 56 -60 60 -60 5 0 9 178 9 395 0 217 -3 395 -7 394 -5 0 -203 -89 -442 -198z" fill="#101c33"/>
<path d="M13924 3254 c3 -781 9 -1827 12 -2326 6 -836 5 -908 -10 -908 -15 0 -16 40 -16 440 l0 440 -375 0 -375 0 0 -210 0 -210 193 0 192 -1 28 -40 27 -39 0 -190 c0 -162 -2 -190 -15 -190 -13 0 -15 27 -15 186 0 172 -2 188 -21 215 l-20 29 -543 0 c-408 0 -545 -3 -554 -12 -7 -7 -12 -44 -12 -95 l0 -83 -180 0 -180 0 0 -35 0 -35 -50 0 -50 0 0 -85 c0 -69 -3 -85 -15 -85 -12 0 -15 18 -15 100 l0 100 50 0 50 0 0 35 c0 28 4 35 20 35 20 0 20 7 20 1575 l0 1575 -399 0 c-219 0 -419 -3 -445 -6 l-46 -7 0 -1483 c0 -1370 1 -1486 17 -1519 l17 -35 128 0 128 0 0 -80 0 -80 70 0 70 0 0 -105 c0 -63 -4 -105 -10 -105 -6 0 -10 37 -10 90 l0 90 -75 0 -75 0 0 85 0 85 -125 0 c-125 0 -126 0 -135 25 -6 15 -17 25 -29 25 -10 0 -24 7 -31 15 -9 10 -32 15 -75 15 -43 0 -66 -5 -75 -15 -7 -8 -24 -15 -39 -15 -15 0 -31 -8 -39 -20 -11 -19 -23 -20 -162 -20 l-150 0 -22 35 c-22 34 -25 35 -90 35 -65 0 -68 -1 -94 -35 -26 -34 -28 -35 -95 -35 l-69 0 0 -180 c0 -153 -2 -180 -15 -180 -13 0 -15 24 -15 154 l0 154 -28 5 c-120 24 -399 16 -657 -19 -161 -22 -145 -4 -145 -160 0 -112 -2 -134 -15 -134 -13 0 -15 27 -15 180 l0 180 -110 0 -110 0 0 50 0 50 -40 0 -40 0 0 -50 0 -50 -220 0 -220 0 0 -180 c0 -113 -4 -180 -10 -180 -7 0 -10 188 -10 545 l0 545 -37 0 c-21 0 -146 -9 -278 -20 -132 -11 -252 -20 -267 -20 l-28 0 0 -525 c0 -460 -2 -525 -15 -525 -13 0 -15 65 -15 525 l0 525 -100 0 -100 0 0 -525 c0 -460 -2 -525 -15 -525 -13 0 -15 71 -15 580 l0 581 -67 -3 -68 -3 0 -90 0 -90 48 3 47 3 0 -490 c0 -430 -2 -491 -15 -491 -13 0 -15 60 -15 476 l0 476 -47 -6 c-27 -3 -78 -8 -115 -12 l-68 -6 0 -464 c0 -406 -2 -464 -15 -464 -13 0 -15 58 -15 463 l0 464 -232 -4 c-128 -2 -279 -6 -335 -9 l-103 -6 0 -454 c0 -389 -2 -454 -14 -454 -11 0 -16 14 -18 47 -3 45 -5 48 -57 79 l-54 33 -89 -45 c-85 -43 -88 -45 -88 -79 0 -24 -5 -35 -15 -35 -13 0 -15 52 -15 410 l0 410 -30 0 c-20 0 -30 5 -30 15 0 10 10 15 30 15 17 0 30 5 30 10 0 6 -103 10 -290 10 l-290 0 0 -145 c0 -80 -4 -145 -8 -145 -5 0 -18 13 -29 28 -18 24 -32 31 -90 39 -37 5 -72 11 -78 13 -5 1 -31 2 -57 1 -41 -1 -52 -6 -84 -41 -20 -21 -66 -54 -103 -72 -36 -18 -72 -41 -79 -50 -17 -23 -58 -23 -70 -2 -13 24 -32 8 -32 -27 0 -54 24 -93 74 -119 48 -26 55 -43 32 -75 -13 -18 -15 -18 -49 -2 -44 21 -61 21 -92 1 -21 -14 -25 -24 -25 -64 0 -54 -17 -76 -52 -67 -13 4 -29 0 -39 -9 -15 -13 -18 -13 -32 1 -10 9 -34 15 -65 15 -37 0 -54 5 -68 21 -16 18 -25 19 -80 14 -66 -8 -62 -10 -100 53 -1 1 -23 -5 -50 -14 -48 -16 -48 -16 -67 7 -12 14 -30 24 -46 24 -23 0 -26 4 -29 38 -2 25 2 45 12 56 15 16 15 20 -5 45 -19 24 -20 30 -9 52 11 20 11 27 -4 43 -10 11 -24 17 -32 14 -9 -3 -32 2 -52 12 -20 10 -48 23 -62 29 -14 6 -29 22 -35 34 -5 12 -13 22 -18 22 -4 0 -27 -21 -50 -46 -39 -42 -46 -45 -77 -39 -28 5 -42 17 -68 56 -26 39 -38 49 -60 49 -16 0 -38 -9 -51 -21 -29 -27 -78 -41 -101 -29 -10 6 -21 23 -25 39 -3 15 -20 41 -36 57 -29 27 -34 29 -107 26 -58 -2 -79 -6 -87 -19 -5 -9 -20 -28 -33 -42 l-22 -26 -43 46 c-23 25 -54 53 -70 62 -27 17 -29 17 -72 -8 -24 -15 -47 -35 -50 -46 -10 -30 -38 -40 -75 -28 -22 8 -38 8 -54 1 -33 -15 -111 -25 -134 -17 -15 4 -23 18 -28 50 -5 39 -13 49 -56 80 -63 46 -140 59 -157 27 -6 -11 -34 -31 -61 -43 -32 -14 -58 -35 -71 -56 -11 -18 -27 -33 -35 -33 -19 0 -54 36 -54 55 0 11 -11 15 -39 15 -29 0 -48 7 -67 25 -32 30 -60 31 -134 5 -58 -20 -156 -27 -162 -10 -2 5 -23 0 -48 -11 -40 -19 -185 -59 -211 -59 -5 0 -42 31 -81 70 -57 55 -78 70 -102 70 -17 1 -56 9 -86 20 -72 25 -111 25 -155 -1 l-36 -21 -57 25 c-63 28 -144 47 -197 47 -27 0 -38 6 -52 28 -26 43 -42 52 -70 41 -13 -5 -39 -9 -56 -9 -18 0 -45 -9 -62 -20 -32 -21 -109 -28 -120 -10 -3 5 2 21 12 36 16 26 16 27 -6 45 -28 23 -40 24 -69 3 l-22 -15 0 -495 0 -494 12195 0 c8123 0 12195 3 12195 10 0 6 -18 10 -39 10 l-40 0 -4 253 c-3 237 -5 256 -29 327 l-25 75 -29 -90 c-28 -87 -29 -97 -32 -327 -2 -142 -7 -238 -13 -238 -5 0 -9 94 -9 238 0 231 -1 239 -28 327 l-28 90 -27 -86 c-26 -84 -27 -94 -27 -328 0 -208 -2 -241 -15 -241 -13 0 -15 33 -15 238 0 229 -1 239 -24 287 -25 53 -78 110 -135 143 -34 21 -34 21 -73 1 -52 -27 -116 -92 -139 -142 -17 -37 -19 -68 -19 -284 0 -209 -2 -243 -15 -243 -13 0 -15 33 -15 238 0 231 -1 239 -28 327 l-28 90 -25 -75 c-22 -70 -24 -92 -27 -328 -2 -212 -5 -252 -17 -252 -13 0 -15 37 -15 241 0 237 0 242 -27 307 -53 135 -148 254 -240 300 l-40 21 -50 -29 c-92 -53 -180 -166 -228 -295 -24 -63 -25 -75 -25 -305 0 -207 -2 -240 -15 -240 -13 0 -15 34 -16 243 -1 234 -1 245 -28 327 l-27 85 -27 -91 c-26 -88 -27 -99 -27 -327 0 -204 -2 -237 -15 -237 -13 0 -15 33 -15 239 0 211 -2 244 -19 283 -21 50 -90 122 -142 148 l-36 19 -44 -28 c-24 -15 -61 -46 -81 -69 -65 -72 -68 -87 -68 -353 0 -206 -2 -239 -15 -239 -13 0 -15 34 -16 243 -1 234 -1 245 -28 327 l-27 85 -27 -91 c-26 -88 -27 -99 -27 -327 0 -201 -2 -237 -15 -237 -12 0 -15 40 -17 252 -3 236 -5 258 -27 328 l-25 75 -28 -90 c-27 -88 -28 -96 -28 -327 0 -230 -1 -238 -20 -238 -18 0 -20 8 -22 118 l-3 117 -513 3 -512 2 -76 -117 c-90 -138 -80 -126 -93 -122 -6 2 21 52 59 111 39 59 70 112 70 118 0 5 -23 10 -51 10 -46 0 -66 -9 -255 -121 -113 -66 -213 -119 -222 -117 -11 2 -2 12 28 30 l45 27 -1142 1 -1143 0 0 -30 c0 -16 -4 -30 -10 -30 -5 0 -10 18 -10 40 l0 40 174 0 173 0 7 71 c3 39 4 75 1 80 -4 5 -100 9 -221 9 -207 0 -214 1 -214 20 0 11 -7 20 -15 20 -8 0 -99 -23 -202 -51 -319 -86 -286 -71 -333 -144 -42 -64 -67 -92 -75 -83 -2 2 45 78 105 168 l110 165 87 6 c49 4 168 7 265 8 171 1 177 2 192 23 9 12 16 30 16 40 0 17 -19 18 -295 18 -245 0 -301 -3 -325 -15 -63 -32 -153 -189 -206 -358 -16 -53 -34 -75 -34 -44 0 25 49 159 87 235 21 42 40 80 41 85 2 4 -19 7 -47 7 l-51 0 0 35 0 36 -30 -16 c-56 -29 -123 -157 -166 -315 -17 -65 -29 -88 -39 -78 -9 9 44 180 80 256 43 91 75 134 120 158 34 18 35 20 35 80 l0 61 38 7 c20 3 95 6 167 6 125 0 135 2 250 40 66 22 179 58 250 79 111 34 127 41 106 49 -27 10 -130 -7 -351 -56 l-125 -27 -155 25 -154 25 -14 47 c-17 60 -59 98 -111 98 -42 0 -143 -32 -243 -78 l-68 -31 0 -130 c0 -124 -1 -131 -20 -131 -22 0 -36 37 -27 70 3 11 1 23 -5 26 -5 4 -9 84 -8 203 1 108 1 206 1 219 -1 21 -4 22 -111 22 -109 0 -111 0 -120 -26 -6 -14 -10 -46 -10 -71 l0 -46 23 21 c29 27 71 28 97 2 18 -18 20 -33 20 -175 l0 -155 -55 0 c-54 0 -55 0 -55 -30 0 -26 4 -30 26 -30 26 0 26 -1 10 -25 l-16 -25 125 0 125 0 0 -230 0 -230 -24 0 c-32 0 -36 29 -36 263 l0 188 -107 -3 -108 -3 -3 -53 -3 -52 38 0 c78 0 103 -45 103 -185 0 -44 -3 -97 -6 -118 l-7 -37 -62 0 -63 0 -6 43 c-3 23 -5 125 -5 227 l0 185 27 22 27 22 -925 0 -925 0 27 -22 27 -22 0 -195 c1 -107 -2 -210 -5 -227 l-6 -33 -64 0 -64 0 0 118 c1 186 18 227 93 220 l37 -4 0 58 0 58 -107 0 -108 0 3 -192 c2 -123 -1 -195 -8 -202 -5 -5 -10 -20 -10 -33 0 -18 -6 -23 -25 -23 l-25 0 0 233 0 232 126 -3 125 -3 -17 25 c-16 26 -16 26 10 26 22 0 26 4 26 29 0 29 -2 30 -52 33 l-53 3 -3 146 c-2 135 -1 148 18 172 27 34 71 36 100 5 l20 -22 0 50 c0 97 3 94 -126 94 -111 0 -114 -1 -115 -22 0 -13 0 -111 1 -220 1 -115 -3 -199 -9 -202 -5 -3 -7 -15 -4 -26 9 -33 -5 -70 -27 -70 -19 0 -20 8 -20 295 l0 296 28 -21 c25 -19 40 -20 147 -18 116 3 120 4 123 26 3 22 3 22 -147 22 l-151 0 -2 1482 -3 1483 -26 5 c-17 3 -66 48 -140 127 l-114 123 -67 0 -68 0 0 -2150 c0 -1903 -2 -2150 -15 -2150 -13 0 -15 254 -17 2207 l-3 2207 -415 98 c-228 53 -421 97 -427 97 -10 1 -13 -466 -13 -2304 0 -2042 -2 -2305 -15 -2305 -13 0 -15 263 -15 2310 l0 2309 -37 10 c-21 5 -53 12 -72 16 l-34 7 7 -1418z m4380 -2594 c26 0 -7 -10 -76 -23 l-78 -15 0 33 0 33 73 -14 c39 -8 76 -14 81 -14z m5650 -31 c19 -17 48 -56 63 -87 28 -57 28 -58 31 -289 l4 -233 -147 0 -146 0 3 232 c3 232 3 233 31 290 28 57 86 118 112 118 8 0 30 -14 49 -31z m-8064 -259 c30 -16 38 -59 39 -209 l2 -141 -79 0 -79 0 -7 31 c-9 47 -7 218 4 264 5 22 17 45 26 52 21 15 68 17 94 3z m244 -3 c9 -7 21 -30 26 -52 11 -46 13 -202 4 -258 l-7 -37 -77 0 -77 0 -7 38 c-9 57 -7 220 3 226 5 3 7 14 4 24 -2 10 5 30 17 45 17 21 30 27 59 27 20 0 45 -6 55 -13z m240 0 c9 -7 21 -30 26 -52 11 -46 13 -217 4 -264 l-6 -31 -80 0 -80 0 4 159 c3 139 5 162 22 180 22 24 82 29 110 8z m244 -8 c11 -11 22 -37 26 -57 8 -48 8 -196 0 -245 l-7 -37 -77 0 -77 0 -7 38 c-9 57 -7 220 3 226 5 3 7 14 4 24 -2 10 5 30 17 45 27 35 89 38 118 6z m246 -12 c16 -22 21 -46 24 -122 3 -52 1 -119 -3 -150 l-6 -55 -78 0 -78 0 -7 38 c-9 57 -7 213 4 251 15 54 38 72 83 69 30 -2 45 -10 61 -31z m234 12 c11 -11 22 -37 26 -57 8 -48 8 -196 0 -245 l-7 -37 -77 0 -77 0 -7 38 c-9 57 -7 220 3 226 5 3 7 14 4 24 -2 10 5 30 17 45 27 35 89 38 118 6z m236 2 c9 -10 18 -31 20 -45 1 -14 6 -29 9 -33 9 -8 9 -156 1 -217 l-7 -46 -77 0 -77 0 -7 38 c-9 55 -7 211 4 257 5 22 17 45 26 52 27 20 88 16 108 -6z m6006 -130 c0 -65 -3 -139 -6 -165 l-7 -46 -52 0 -52 0 -7 61 c-3 34 -6 109 -6 165 l0 104 65 0 65 0 0 -119z m1260 22 c0 -54 -3 -128 -7 -165 l-6 -68 -52 0 -52 0 -7 46 c-3 26 -6 100 -6 165 l0 119 65 0 65 0 0 -97z" fill="#101c33"/>
<path d="M23860 600 c-15 -16 -35 -46 -45 -65 -18 -39 -42 -162 -32 -171 3 -3 20 2 39 12 43 23 123 23 166 0 19 -10 36 -15 39 -12 9 8 -17 137 -34 170 -20 40 -73 96 -91 96 -8 0 -26 -13 -42 -30z" fill="#101c33"/>
<path d="M11502 3776 l-243 -251 202 -3 c111 -1 204 0 207 3 6 6 83 487 79 496 -1 3 -111 -108 -245 -245z" fill="#101c33"/>
<path d="M11776 4004 c-13 -62 -75 -478 -72 -481 2 -2 134 -2 295 -1 l291 3 -254 254 c-246 245 -254 253 -260 225z" fill="#101c33"/>
<path d="M3780 3624 c0 -8 -4 -12 -10 -9 -5 3 -10 -1 -10 -9 0 -9 7 -16 15 -16 8 0 15 -9 15 -21 0 -13 -4 -18 -12 -13 -7 5 -9 2 -5 -9 3 -8 2 -84 -3 -169 -5 -84 -10 -172 -12 -195 -1 -24 -6 -43 -10 -43 -15 0 -8 -29 9 -39 16 -8 16 -11 2 -28 -11 -13 -14 -34 -11 -75 l4 -58 44 0 44 0 -2 63 c0 34 -6 68 -11 75 -8 10 -7 16 3 22 8 5 10 16 6 31 -12 40 -34 454 -25 457 5 2 9 10 9 18 0 9 -4 12 -10 9 -5 -3 -10 1 -10 9 0 9 -4 16 -10 16 -5 0 -10 -7 -10 -16z" fill="#101c33"/>
<path d="M5030 3606 c0 -8 -6 -17 -12 -19 -10 -4 -10 -7 -1 -14 9 -6 11 -29 9 -74 -3 -35 -8 -127 -11 -204 -3 -77 -11 -155 -17 -174 -8 -25 -7 -35 2 -41 8 -5 10 -15 5 -26 -4 -11 -8 -49 -9 -86 -1 -36 -4 -69 -7 -72 -3 -3 -38 -6 -79 -7 -91 -2 -113 -17 -108 -75 2 -33 6 -38 23 -36 11 2 81 8 155 14 110 8 150 7 213 -5 42 -8 79 -11 82 -7 2 4 7 25 11 48 l6 41 -38 6 c-22 4 -46 9 -54 12 -8 3 -36 5 -61 4 l-46 -2 -7 55 c-3 30 -3 62 0 70 3 9 1 23 -6 31 -10 12 -10 18 0 30 9 10 9 23 2 47 -6 18 -13 98 -17 178 -3 80 -8 172 -11 204 -2 41 0 63 9 69 9 7 9 10 0 14 -7 2 -13 11 -13 19 0 8 -4 14 -10 14 -5 0 -10 -6 -10 -14z" fill="#101c33"/>
<path d="M11217 3484 c-4 -4 -4 -11 -1 -15 6 -10 940 -12 1033 -3 33 4 61 11 61 15 0 10 -1083 12 -1093 3z" fill="#101c33"/>
<path d="M12100 1865 l0 -1575 135 0 135 0 -2 1572 -3 1573 -132 3 -133 3 0 -1576z" fill="#101c33"/>
<path d="M3150 3259 c0 -29 -2 -31 -30 -27 -25 4 -30 1 -30 -15 0 -15 5 -18 25 -15 14 3 28 2 30 -2 3 -4 0 -93 -7 -196 -8 -143 -15 -193 -26 -207 -12 -13 -13 -20 -4 -29 7 -7 12 -40 12 -76 l0 -63 43 3 42 3 -3 58 c-3 35 1 63 8 72 10 12 10 18 1 29 -11 13 -43 392 -35 407 2 4 15 4 29 1 20 -3 25 0 25 15 0 16 -5 19 -31 15 -30 -4 -31 -3 -27 27 3 21 0 31 -9 31 -8 0 -13 -12 -13 -31z" fill="#101c33"/>
<path d="M4358 3238 c-3 -29 -6 -33 -30 -30 -22 2 -28 -2 -28 -16 0 -15 6 -18 30 -14 21 3 30 0 30 -9 -1 -8 -7 -99 -14 -202 -9 -142 -16 -191 -27 -198 -11 -7 -12 -12 -1 -29 6 -11 12 -45 12 -75 l0 -55 40 0 40 0 0 55 c0 30 6 64 13 75 10 17 9 22 -2 29 -9 6 -16 47 -22 137 -4 71 -11 162 -14 203 l-6 73 30 -4 c25 -4 31 -1 31 14 0 14 -6 18 -27 16 -25 -3 -28 1 -31 30 -2 17 -7 32 -12 32 -5 0 -10 -15 -12 -32z" fill="#101c33"/>
<path d="M23924 3018 c-7 -22 -7 -22 -15 -3 -4 11 -8 14 -8 7 -1 -7 -6 -10 -13 -6 -8 5 -10 -8 -5 -52 6 -57 -1 -86 -19 -85 -5 0 -9 -7 -10 -17 -2 -37 -5 -42 -20 -42 -11 0 -14 -5 -10 -16 8 -20 -11 -54 -30 -54 -10 0 -13 -6 -9 -19 7 -22 -4 -53 -16 -45 -16 9 -31 -6 -19 -21 13 -16 2 -45 -15 -39 -16 6 -29 -12 -15 -21 17 -11 11 -25 -16 -35 -20 -8 -24 -14 -16 -23 13 -15 0 -42 -20 -42 -7 -1 -12 -7 -10 -15 5 -24 -8 -60 -21 -57 -6 1 -12 -7 -13 -18 -2 -39 -4 -45 -16 -43 -7 2 -13 -7 -13 -19 0 -11 -3 -25 -7 -29 -5 -4 -8 -16 -8 -26 0 -16 10 -18 120 -18 l120 0 0 129 c0 70 5 142 11 160 15 43 61 67 99 51 43 -18 50 -44 52 -195 l3 -140 123 -3 c113 -2 122 -1 122 16 0 10 -3 22 -7 26 -5 4 -8 18 -8 29 0 12 -6 21 -12 19 -13 -2 -15 3 -17 40 -1 10 -5 17 -9 15 -16 -4 -36 47 -25 60 8 10 5 13 -10 13 -24 0 -37 27 -22 45 12 15 -3 30 -19 21 -14 -9 -23 25 -11 39 12 15 -3 30 -19 21 -13 -8 -21 18 -14 45 5 18 3 21 -10 16 -18 -7 -30 17 -22 44 4 13 1 19 -9 19 -19 0 -38 34 -30 54 4 11 1 16 -10 16 -16 0 -18 5 -20 45 -1 11 -7 19 -15 17 -11 -2 -13 13 -9 78 3 44 3 80 2 80 -1 0 -6 -10 -10 -22z" fill="#101c33"/>
<path d="M3583 2903 c-3 -7 -11 -13 -19 -13 -10 0 -14 -12 -14 -37 0 -54 10 -66 44 -53 33 12 322 13 386 0 25 -4 47 -6 49 -4 3 2 5 25 5 51 1 45 0 47 -34 55 -19 5 -120 10 -224 11 -143 2 -190 -1 -193 -10z" fill="#101c33"/>
<path d="M2700 2856 c0 -7 -7 -19 -15 -26 -22 -18 -28 -89 -12 -135 10 -27 11 -48 5 -64 -4 -13 -6 -39 -2 -57 5 -27 3 -34 -10 -34 -11 0 -16 -9 -16 -30 l0 -30 65 0 65 0 0 30 c0 20 -5 30 -15 30 -27 0 -14 189 14 198 17 6 13 30 -8 44 -10 7 -24 30 -32 51 -13 36 -39 52 -39 23z" fill="#101c33"/>
<path d="M4505 2844 l-18 -28 -15 22 c-8 12 -18 22 -23 22 -11 0 -1 -28 22 -61 16 -22 17 -36 10 -100 -4 -41 -4 -86 0 -101 4 -16 5 -28 2 -28 -3 0 2 -9 12 -20 18 -20 19 -20 30 14 7 19 11 71 10 115 -2 50 1 81 7 81 7 0 6 5 -1 14 -8 10 -7 22 5 51 15 36 11 63 -5 36 -7 -10 -10 -10 -13 -1 -2 8 -11 1 -23 -16z" fill="#101c33"/>
<path d="M22905 2824 c-4 -27 -11 -54 -16 -60 -7 -9 -11 -484 -9 -1191 l0 -143 45 0 45 0 0 44 c0 25 10 86 22 138 l21 93 14 -50 c8 -27 18 -90 22 -140 6 -62 8 30 9 292 1 242 6 384 12 388 12 7 12 547 0 585 -7 22 -8 21 -9 -12 -1 -20 -6 -40 -12 -43 -15 -10 -59 35 -59 60 0 13 -3 38 -7 56 -8 33 -8 33 -13 -16 -4 -37 -9 -51 -22 -53 -15 -3 -18 4 -18 35 0 61 -16 72 -25 17z" fill="#101c33"/>
<path d="M24828 2840 c-4 -19 -9 -46 -10 -59 -2 -13 -18 -35 -35 -49 l-33 -25 -1 54 c-1 52 -1 53 -10 19 -5 -20 -6 -312 -1 -695 4 -363 8 -640 10 -615 1 25 12 88 24 140 l21 95 18 -70 c10 -38 19 -100 19 -137 l0 -68 49 0 50 0 3 148 c2 81 0 379 -3 662 -4 406 -8 528 -20 575 -16 63 -29 58 -29 -11 0 -27 -4 -34 -19 -34 -17 0 -20 8 -23 53 -3 49 -4 50 -10 17z" fill="#101c33"/>
<path d="M23478 2761 c-2 -33 -7 -63 -10 -66 -3 -3 -44 -9 -91 -12 -84 -6 -85 -5 -89 17 -4 33 -28 38 -28 6 0 -25 -2 -26 -67 -26 -38 0 -74 -4 -81 -8 -9 -7 -12 -62 -10 -243 l3 -234 38 -3 37 -3 0 124 c0 112 2 127 23 157 12 17 34 39 48 48 23 13 31 13 59 2 55 -23 64 -49 70 -194 l5 -131 85 0 85 0 0 185 c-1 124 -5 192 -13 205 -10 18 -11 15 -12 -24 0 -67 -8 -45 -13 39 -5 73 -25 211 -31 218 -2 1 -5 -24 -8 -57z" fill="#101c33"/>
<path d="M24321 2810 c-7 -17 -31 -194 -32 -240 -2 -44 -3 -47 -6 -17 -2 20 -8 37 -13 37 -12 0 -22 -147 -18 -280 l3 -115 83 -3 82 -3 0 118 c0 135 13 174 70 207 33 19 33 19 68 0 59 -32 72 -71 72 -207 l0 -118 38 3 37 3 3 234 c2 181 -1 236 -10 243 -7 4 -43 8 -80 8 -66 0 -68 1 -68 26 0 32 -24 27 -28 -6 -4 -22 -6 -23 -88 -17 -47 2 -88 8 -92 12 -4 3 -10 32 -13 63 -3 31 -7 55 -8 52z" fill="#101c33"/>
<path d="M3596 2779 c-27 -11 -28 -14 -22 -53 24 -144 32 -369 17 -499 -6 -59 -5 -67 8 -61 31 13 227 26 309 20 l82 -5 0 157 c0 86 4 173 9 192 5 19 12 81 15 136 5 99 4 102 -17 109 -39 13 -369 16 -401 4z m262 -272 l3 -147 -26 0 -25 0 0 143 c0 79 3 147 7 151 4 4 14 5 23 4 13 -3 15 -27 18 -151z m-123 -7 c0 -143 0 -145 -22 -148 -23 -3 -23 -3 -23 141 0 79 3 147 7 151 4 4 14 5 23 4 13 -3 15 -25 15 -148z m243 3 l3 -143 -26 0 -25 0 0 146 c0 145 0 145 23 142 21 -3 22 -6 25 -145z" fill="#101c33"/>
<path d="M4850 2757 c-30 -14 -41 -27 -33 -41 8 -12 23 -176 29 -313 l5 -112 55 -11 54 -11 0 -50 0 -49 123 0 c67 0 131 -3 143 -6 21 -5 21 -3 27 253 4 142 9 274 13 294 l6 37 -51 11 c-68 15 -338 13 -371 -2z m248 -280 l3 -147 -26 0 -25 0 0 134 c0 146 4 169 29 164 14 -3 16 -24 19 -151z m-120 -10 c2 -142 2 -147 -18 -147 -19 0 -20 6 -20 143 0 79 3 147 7 151 22 21 28 -10 31 -147z m230 5 c2 -137 2 -142 -18 -142 -19 0 -20 6 -20 146 0 133 1 145 18 142 15 -3 17 -19 20 -146z" fill="#101c33"/>
<path d="M10118 2629 c24 -19 111 -49 144 -49 13 0 18 -7 18 -25 l0 -25 -104 0 c-103 0 -133 -9 -99 -29 15 -9 13 -10 -14 -11 -52 0 -47 -17 9 -30 71 -15 351 -32 413 -25 90 10 175 27 175 35 0 8 -83 20 -142 20 -31 0 -38 4 -38 20 0 17 -7 20 -50 20 -27 0 -50 5 -50 10 0 6 10 8 24 4 27 -6 110 32 140 65 18 20 18 20 -8 33 -22 9 -43 9 -104 -1 -125 -22 -202 -24 -272 -8 -64 15 -65 15 -42 -4z" fill="#101c33"/>
<path d="M2948 2591 c-16 -14 -18 -23 -13 -53 l7 -37 47 6 c67 10 287 9 349 0 l52 -9 0 50 0 50 -45 6 c-25 4 -120 6 -211 5 -135 -2 -170 -5 -186 -18z" fill="#101c33"/>
<path d="M23866 2578 c-13 -18 -16 -49 -14 -158 1 -84 3 -105 5 -55 2 44 6 91 9 104 11 49 24 -2 24 -97 0 -70 3 -93 13 -90 8 3 13 31 15 84 4 156 24 165 33 16 l5 -97 2 135 c2 149 -7 180 -53 180 -13 0 -31 -10 -39 -22z" fill="#101c33"/>
<path d="M4163 2573 c-25 -17 -30 -54 -14 -95 5 -13 12 -53 16 -89 l7 -66 -74 -30 -73 -29 -3 -48 -3 -47 33 3 c32 3 33 5 36 49 3 45 4 47 40 54 23 4 85 41 164 98 102 71 128 95 128 114 0 17 6 23 23 23 36 0 51 14 32 30 -8 7 -15 21 -15 31 0 17 -9 19 -112 19 -62 0 -120 -4 -128 -10 -8 -5 -19 -5 -25 -1 -6 5 -20 2 -32 -6z" fill="#101c33"/>
<path d="M4550 2565 c-19 -23 -8 -50 23 -53 24 -3 27 0 27 26 0 18 -6 32 -16 36 -21 8 -20 8 -34 -9z" fill="#101c33"/>
<path d="M23245 2479 l-35 -31 0 -129 0 -129 75 0 75 0 0 124 c0 110 -2 126 -21 150 -37 47 -54 50 -94 15z m25 -59 c0 -5 -2 -10 -4 -10 -3 0 -8 5 -11 10 -3 6 -1 10 4 10 6 0 11 -4 11 -10z m45 0 c-3 -5 -10 -10 -16 -10 -5 0 -9 5 -9 10 0 6 7 10 16 10 8 0 12 -4 9 -10z m-45 -117 c0 -56 -2 -63 -20 -63 -18 0 -20 7 -20 63 0 36 5 68 12 75 19 19 28 -5 28 -75z m70 1 c0 -62 -1 -64 -25 -64 -24 0 -25 2 -25 63 0 67 14 95 37 76 8 -7 13 -35 13 -75z" fill="#101c33"/>
<path d="M24485 2477 l-35 -35 0 -126 0 -126 75 0 75 0 0 124 c0 110 -2 126 -21 150 -38 49 -56 51 -94 13z m35 -57 c0 -5 -4 -10 -9 -10 -6 0 -13 5 -16 10 -3 6 1 10 9 10 9 0 16 -4 16 -10z m35 0 c-3 -5 -10 -10 -16 -10 -5 0 -9 5 -9 10 0 6 7 10 16 10 8 0 12 -4 9 -10z m-35 -116 c0 -62 -1 -64 -25 -64 -24 0 -25 2 -25 63 0 67 14 95 37 76 8 -7 13 -35 13 -75z m60 0 c0 -62 -1 -64 -25 -64 -24 0 -25 2 -25 63 0 67 14 95 37 76 8 -7 13 -35 13 -75z" fill="#101c33"/>
<path d="M3053 2491 c-46 -4 -88 -12 -94 -18 -9 -9 -9 -27 1 -75 15 -70 20 -444 7 -491 -7 -25 -6 -27 10 -19 10 6 69 13 131 17 l112 7 0 29 c0 17 6 32 15 35 13 5 15 44 15 265 l0 259 -57 -2 c-32 0 -95 -4 -140 -7z m171 -137 c3 -9 6 -76 6 -150 l0 -134 -25 0 -25 0 0 143 c0 79 3 147 7 150 11 12 31 7 37 -9z m-116 -147 l3 -147 -26 0 -25 0 0 138 c0 95 4 142 12 150 27 27 33 3 36 -141z" fill="#101c33"/>
<path d="M3280 2246 l0 -246 40 0 40 0 0 103 c1 56 5 163 10 237 4 74 8 136 7 136 -1 1 -23 5 -49 8 l-48 7 0 -245z m58 -34 l3 -142 -26 0 -25 0 0 138 c0 76 3 142 7 146 4 4 14 5 23 4 12 -3 15 -26 18 -146z" fill="#101c33"/>
<path d="M4438 2468 c-2 -15 -36 -46 -106 -96 -57 -41 -102 -75 -100 -76 2 -1 70 2 152 8 98 6 201 6 295 -1 81 -5 147 -9 149 -7 2 1 -44 33 -102 70 -58 38 -106 75 -106 82 0 6 -4 12 -10 12 -5 0 -9 6 -7 13 1 9 -21 13 -80 15 -78 3 -82 2 -85 -20z" fill="#101c33"/>
<path d="M2666 2438 c-21 -29 -51 -127 -60 -193 -7 -48 -7 -49 9 -28 l16 23 23 -27 23 -27 5 135 c3 74 4 135 3 137 -2 2 -10 -7 -19 -20z" fill="#101c33"/>
<path d="M2715 2450 c-9 -15 -19 -260 -10 -260 4 0 16 12 27 26 l21 26 24 -29 23 -28 -5 50 c-20 163 -54 257 -80 215z" fill="#101c33"/>
<path d="M2770 2455 c0 -3 5 -15 10 -25 6 -11 19 -68 28 -127 l18 -108 23 35 c15 24 20 44 16 65 -7 40 -67 157 -82 163 -7 2 -13 1 -13 -3z" fill="#101c33"/>
<path d="M10000 2291 l0 -161 155 0 155 0 0 -795 0 -795 28 0 c51 0 72 -11 72 -36 0 -23 3 -24 69 -24 68 0 70 0 91 -35 19 -30 27 -35 61 -35 l39 0 0 1014 0 1014 -67 -15 c-111 -24 -483 -9 -585 23 -17 5 -18 -7 -18 -155z" fill="#101c33"/>
<path d="M2582 2321 c-16 -40 -20 -65 -14 -80 7 -18 11 -8 25 55 9 43 16 79 14 80 -1 2 -13 -23 -25 -55z" fill="#101c33"/>
<path d="M16381 2345 c-126 -23 -291 -81 -388 -139 -99 -58 -229 -180 -290 -271 -119 -178 -173 -352 -173 -563 l0 -123 38 3 37 3 6 155 c5 132 10 167 33 235 135 398 441 624 871 642 487 21 855 -243 981 -702 9 -35 19 -116 21 -192 l5 -133 35 0 35 0 -4 153 c-4 144 -6 158 -42 265 -141 416 -493 664 -961 678 -76 2 -151 -2 -204 -11z" fill="#101c33"/>
<path d="M4390 2284 c-72 -4 -222 -22 -257 -31 -20 -5 -23 -11 -23 -59 0 -30 1 -54 3 -54 1 0 52 7 112 15 179 24 525 18 680 -11 l35 -6 0 55 c0 52 -2 56 -27 61 -105 22 -380 38 -523 30z" fill="#101c33"/>
<path d="M16377 2264 c-139 -25 -309 -93 -387 -154 -25 -19 -22 -20 570 -19 l595 0 -25 20 c-36 30 -164 93 -240 117 -154 51 -356 65 -513 36z" fill="#101c33"/>
<path d="M23580 2225 l0 -35 325 0 325 0 0 35 0 35 -325 0 -325 0 0 -35z" fill="#101c33"/>
<path d="M2851 2191 c-18 -28 -36 -51 -40 -51 -4 0 -18 14 -30 31 l-23 31 -34 -33 -34 -33 -28 34 -28 33 -23 -36 c-12 -21 -26 -37 -31 -37 -4 0 -11 16 -14 35 -9 46 -19 44 -33 -5 -5 -22 -6 -40 -2 -40 5 0 9 -40 9 -90 0 -53 -4 -90 -10 -90 -5 0 -10 -20 -10 -45 0 -49 3 -51 40 -30 19 11 66 14 193 15 l167 0 0 45 c0 25 -4 45 -10 45 -13 0 -13 157 -1 162 6 2 2 26 -8 57 l-17 54 -33 -52z m-194 -193 c-2 -18 -4 -6 -4 27 0 33 2 48 4 33 2 -15 2 -42 0 -60z m93 10 c0 -36 -4 -48 -15 -48 -11 0 -15 12 -15 44 0 24 3 52 6 61 11 28 24 -4 24 -57z m107 -10 c-2 -18 -4 -6 -4 27 0 33 2 48 4 33 2 -15 2 -42 0 -60z m-227 22 c0 -27 -4 -50 -10 -50 -11 0 -14 83 -3 93 12 12 13 8 13 -43z m160 -11 c0 -27 -4 -49 -10 -49 -5 0 -10 25 -10 56 0 34 4 53 10 49 6 -3 10 -28 10 -56z m100 0 c0 -31 -4 -48 -10 -44 -5 3 -10 26 -10 51 0 24 5 44 10 44 6 0 10 -23 10 -51z" fill="#101c33"/>
<path d="M23090 1800 l0 -370 165 0 165 0 0 51 c0 52 27 188 39 202 11 11 41 -134 41 -198 0 -42 3 -55 15 -55 12 0 15 14 15 63 1 80 34 224 44 187 23 -91 36 -161 36 -202 l0 -48 135 0 c131 0 136 1 144 23 11 29 6 37 -30 37 -70 0 -169 70 -214 151 -26 47 -30 64 -30 134 0 130 57 220 173 273 47 21 64 24 131 20 94 -6 142 -29 205 -99 56 -62 81 -136 73 -215 -14 -134 -115 -245 -239 -261 -45 -7 -49 -10 -37 -40 8 -22 13 -23 144 -23 l135 0 0 49 c0 44 18 146 37 206 9 29 42 -126 43 -197 0 -45 3 -58 15 -58 12 0 15 14 15 63 1 34 9 96 19 137 17 68 19 72 26 45 4 -16 13 -55 21 -86 8 -31 14 -80 14 -108 l0 -51 165 0 165 0 0 370 0 370 -815 0 -815 0 0 -370z m1476 217 c10 -48 21 -84 25 -79 4 4 14 43 23 87 10 44 20 89 23 100 4 13 18 -30 39 -115 31 -128 33 -145 34 -322 l0 -188 -120 0 -120 0 0 183 c0 170 2 191 32 320 35 152 35 152 64 14z m-1375 43 c13 -39 26 -67 30 -63 4 5 17 37 30 72 l23 65 33 -130 c31 -123 32 -138 33 -316 l0 -188 -120 0 -120 0 0 185 c0 173 2 195 31 315 17 72 32 130 34 130 2 0 14 -32 26 -70z" fill="#101c33"/>
<path d="M24512 1938 c-18 -76 -22 -122 -22 -250 l0 -158 45 0 45 0 0 159 c0 126 -4 178 -21 250 -11 50 -22 91 -23 91 -1 0 -12 -42 -24 -92z" fill="#101c33"/>
<path d="M24622 1944 c-18 -74 -22 -122 -22 -253 l0 -161 45 0 45 0 0 163 c0 136 -4 176 -24 252 l-23 90 -21 -91z" fill="#101c33"/>
<path d="M23148 1968 c-9 -40 -15 -74 -13 -76 3 -3 64 25 74 34 4 3 -29 96 -39 107 -4 4 -14 -25 -22 -65z" fill="#101c33"/>
<path d="M23246 1984 c-10 -31 -16 -57 -14 -59 10 -9 70 -36 73 -33 5 5 -26 131 -35 141 -3 4 -14 -18 -24 -49z" fill="#101c33"/>
<path d="M23165 1877 l-40 -23 -3 -162 -2 -162 100 0 100 0 -2 162 -3 162 -40 23 c-22 12 -47 23 -55 23 -8 0 -33 -11 -55 -23z" fill="#101c33"/>
<path d="M3655 2155 c-5 -2 -22 -6 -37 -9 l-28 -6 0 -429 c0 -235 3 -448 6 -472 l6 -44 194 0 194 0 -2 480 -3 480 -160 2 c-88 1 -164 0 -170 -2z m221 -146 c7 -12 -15 -31 -28 -23 -4 3 -8 12 -8 20 0 17 26 19 36 3z m-1 -369 c0 -8 -8 -16 -17 -18 -13 -2 -18 3 -18 18 0 15 5 20 18 18 9 -2 17 -10 17 -18z m5 -351 c0 -12 -29 -24 -37 -16 -3 4 -3 13 0 21 6 16 37 11 37 -5z" fill="#101c33"/>
<path d="M4020 1650 l0 -500 25 10 c50 19 85 41 95 59 6 12 10 109 10 244 0 187 -2 227 -15 237 -11 9 -15 32 -15 80 0 50 -4 71 -16 81 -14 12 -16 29 -11 119 2 58 3 120 0 138 -5 29 -9 32 -39 32 l-34 0 0 -500z" fill="#101c33"/>
<path d="M4320 2144 c-19 -2 -73 -9 -118 -15 l-84 -11 6 -32 c4 -18 1 -46 -4 -63 -6 -17 -10 -55 -8 -84 4 -56 4 -55 30 14 6 16 22 35 35 44 29 20 71 5 95 -34 l16 -26 16 31 c35 68 110 77 166 20 17 -17 32 -29 33 -27 2 2 11 16 20 31 10 17 33 32 57 39 54 16 100 -4 124 -56 l18 -37 18 30 c54 89 160 61 188 -50 10 -39 10 -35 7 42 -6 105 -6 126 -3 142 5 22 -128 38 -357 42 -121 2 -236 2 -255 0z" fill="#101c33"/>
<path d="M4964 2138 c-4 -7 -7 -68 -6 -136 2 -96 -1 -128 -13 -145 -9 -14 -15 -44 -15 -84 0 -34 -4 -65 -10 -68 -14 -9 -13 -460 1 -499 l11 -31 157 3 156 2 5 458 c3 251 9 466 14 478 7 19 3 22 -46 27 -92 12 -246 8 -254 -5z m156 -152 c0 -8 -5 -18 -11 -22 -14 -8 -33 11 -25 25 10 16 36 13 36 -3z m-2 -369 c2 -12 -3 -17 -17 -17 -12 0 -21 6 -21 13 0 31 32 34 38 4z m0 -354 c-2 -10 -10 -18 -18 -18 -8 0 -16 8 -18 18 -2 12 3 17 18 17 15 0 20 -5 18 -17z" fill="#101c33"/>
<path d="M3468 2088 l-78 -31 0 -39 0 -38 -46 0 -47 0 7 -46 c3 -26 6 -181 6 -345 l0 -297 39 15 c38 15 43 14 130 -15 l91 -31 0 430 c0 337 -3 429 -12 428 -7 0 -48 -14 -90 -31z" fill="#101c33"/>
<path d="M9890 1350 l0 -760 24 9 c16 7 58 2 136 -14 62 -14 139 -27 171 -31 l59 -7 0 782 0 781 -195 0 -195 0 0 -760z" fill="#101c33"/>
<path d="M15869 2003 l-74 -78 759 -3 c418 -1 762 0 765 3 3 3 -28 39 -69 80 l-74 75 -617 0 -616 0 -74 -77z" fill="#101c33"/>
<path d="M23819 2034 c-105 -32 -182 -142 -182 -259 0 -74 19 -120 72 -178 59 -63 127 -91 211 -85 80 6 135 33 187 92 71 80 86 194 38 291 -60 124 -193 181 -326 139z m105 -20 c15 -6 15 -8 -1 -19 -13 -9 -22 -10 -35 -2 -27 17 3 34 36 21z m-84 -18 c0 -3 -4 -8 -10 -11 -5 -3 -10 -1 -10 4 0 6 5 11 10 11 6 0 10 -2 10 -4z m150 -6 c0 -5 -2 -10 -4 -10 -3 0 -8 5 -11 10 -3 6 -1 10 4 10 6 0 11 -4 11 -10z m-100 -15 c11 -13 9 -21 -8 -45 -12 -16 -22 -35 -22 -42 -1 -8 -7 -5 -15 6 -38 51 6 128 45 81z m78 3 c16 -16 15 -60 -3 -84 -8 -11 -14 -14 -15 -6 0 7 -9 25 -20 40 -13 17 -18 35 -14 45 7 20 35 22 52 5z m-148 -34 c0 -8 -6 -11 -15 -8 -8 4 -15 15 -15 26 0 17 3 18 15 8 8 -7 15 -19 15 -26z m186 -2 c-15 -15 -16 -15 -16 5 0 12 6 23 13 26 19 6 21 -13 3 -31z m-241 8 c-3 -5 -11 -10 -16 -10 -6 0 -7 5 -4 10 3 6 11 10 16 10 6 0 7 -4 4 -10z m300 0 c3 -5 2 -10 -4 -10 -5 0 -13 5 -16 10 -3 6 -2 10 4 10 5 0 13 -4 16 -10z m-248 -42 c13 -12 23 -24 23 -27 0 -3 -21 -7 -46 -8 -47 -2 -62 11 -50 42 8 22 46 18 73 -7z m118 -6 c9 -23 -21 -49 -42 -36 -24 15 -26 29 -8 47 18 18 40 13 50 -11z m130 -2 c0 -23 -4 -25 -47 -25 -53 -1 -58 5 -27 36 29 29 74 23 74 -11z m-339 3 c0 -10 -8 -24 -16 -31 -13 -11 -12 -12 7 -7 18 5 27 -1 46 -32 30 -46 21 -59 -25 -40 -29 12 -36 21 -41 52 -6 37 5 75 22 75 5 0 8 -8 7 -17z m384 -3 c8 -14 8 -32 0 -59 -8 -31 -17 -42 -42 -50 -44 -15 -50 -3 -21 42 19 31 28 37 46 32 19 -5 20 -4 6 7 -16 13 -22 48 -8 48 5 0 13 -9 19 -20z m-281 -44 c14 -16 5 -42 -17 -51 -17 -6 -42 18 -42 41 0 24 42 31 59 10z m36 4 c3 -5 1 -10 -4 -10 -6 0 -11 5 -11 10 0 6 2 10 4 10 3 0 8 -4 11 -10z m95 0 c0 -5 -5 -10 -11 -10 -5 0 -7 5 -4 10 3 6 8 10 11 10 2 0 4 -4 4 -10z m71 0 c12 0 1 -42 -14 -52 -14 -9 -34 0 -41 19 -8 20 13 46 31 38 8 -3 19 -5 24 -5z m-141 -40 c-23 -15 -40 -12 -40 6 0 14 3 14 15 4 12 -10 15 -9 15 6 0 14 3 15 12 6 10 -10 10 -15 -2 -22z m40 15 c0 -9 6 -12 15 -9 8 4 15 1 15 -5 0 -12 -11 -14 -34 -5 -17 7 -22 34 -6 34 6 0 10 -7 10 -15z m204 -10 c3 -8 1 -15 -4 -15 -6 0 -10 7 -10 15 0 8 2 15 4 15 2 0 6 -7 10 -15z m-444 -5 c0 -5 -4 -10 -10 -10 -5 0 -10 5 -10 10 0 6 5 10 10 10 6 0 10 -4 10 -10z m239 -24 c16 -20 3 -46 -24 -46 -13 0 -26 7 -29 16 -7 19 10 44 29 44 7 0 18 -6 24 -14z m-69 -6 c0 -5 -4 -10 -9 -10 -6 0 -13 5 -16 10 -3 6 1 10 9 10 9 0 16 -4 16 -10z m115 0 c-3 -5 -10 -10 -16 -10 -5 0 -9 5 -9 10 0 6 7 10 16 10 8 0 12 -4 9 -10z m-250 -10 c3 -5 19 -10 36 -10 l29 0 -23 -37 c-26 -41 -59 -51 -65 -20 -2 10 5 28 15 39 18 20 18 20 -6 17 -13 -2 -26 2 -28 9 -5 14 33 17 42 2z m125 -24 c-5 -5 -15 -2 -24 7 -23 22 -20 27 8 14 15 -7 21 -16 16 -21z m136 9 c-11 -11 -23 -14 -34 -9 -15 6 -15 8 3 12 11 2 24 8 29 13 17 16 19 0 2 -16z m141 13 c-2 -7 -15 -11 -28 -9 -23 3 -23 2 -6 -16 19 -22 22 -49 7 -58 -19 -12 -45 5 -61 40 l-16 35 28 0 c15 0 31 5 34 10 9 15 47 12 42 -2z m-437 -44 c0 -8 -4 -12 -10 -9 -5 3 -10 10 -10 16 0 5 5 9 10 9 6 0 10 -7 10 -16z m140 1 c10 -12 10 -18 0 -30 -24 -29 -66 -11 -55 24 7 24 37 28 55 6z m54 9 c17 -7 22 -34 6 -34 -5 0 -10 8 -10 18 0 14 -2 15 -10 2 -5 -8 -12 -11 -15 -8 -4 4 -4 11 0 17 7 13 8 13 29 5z m74 -13 c3 -8 -1 -12 -9 -9 -7 2 -15 10 -17 17 -3 8 1 12 9 9 7 -2 15 -10 17 -17z m75 -3 c7 -23 -7 -38 -34 -38 -19 0 -31 23 -23 45 10 24 51 19 57 -7z m101 7 c-4 -8 -8 -15 -10 -15 -2 0 -4 7 -4 15 0 8 4 15 10 15 5 0 7 -7 4 -15z m-204 -16 c0 -5 -4 -9 -10 -9 -5 0 -10 7 -10 16 0 8 5 12 10 9 6 -3 10 -10 10 -16z m-60 -19 c0 -5 -4 -10 -10 -10 -5 0 -10 5 -10 10 0 6 5 10 10 10 6 0 10 -4 10 -10z m90 0 c0 -5 -4 -10 -10 -10 -5 0 -10 5 -10 10 0 6 5 10 10 10 6 0 10 -4 10 -10z m150 -39 c-13 -26 -27 -27 -27 -3 0 19 30 46 35 32 2 -5 -2 -18 -8 -29z m-384 2 c-3 -8 -6 -17 -6 -20 0 -3 -7 0 -15 7 -22 19 -19 39 6 33 12 -4 18 -11 15 -20z m114 20 c0 -28 -58 -67 -84 -57 -18 7 -22 50 -5 56 11 4 89 5 89 1z m95 -17 c0 -30 -31 -44 -51 -24 -24 24 -11 50 23 46 20 -2 28 -9 28 -22z m123 15 c6 0 12 -12 12 -25 0 -45 -65 -43 -90 4 -5 10 -10 20 -10 22 0 3 53 2 88 -1z m-164 -96 c-4 -8 -17 -15 -31 -15 -13 0 -22 -4 -19 -9 4 -5 -4 -6 -16 -3 -18 5 -19 7 -6 10 13 2 15 11 11 38 -3 20 -1 40 7 49 10 13 16 10 36 -20 13 -19 21 -42 18 -50z m86 30 c0 -26 -18 -45 -42 -45 -30 0 -32 28 -7 65 22 31 25 33 37 18 6 -9 12 -26 12 -38z m-164 -20 c-7 -18 -26 -20 -26 -2 0 18 24 41 28 27 2 -6 1 -17 -2 -25z m204 -2 c0 -24 -25 -9 -28 17 -3 21 -2 22 12 11 9 -7 16 -20 16 -28z m-250 5 c0 -6 -6 -5 -15 2 -8 7 -15 14 -15 16 0 2 7 1 15 -2 8 -4 15 -11 15 -16z m290 7 c-7 -9 -15 -13 -19 -10 -3 3 1 10 9 15 21 14 24 12 10 -5z m-129 -45 c6 0 7 -4 4 -10 -8 -13 -52 -13 -59 -1 -7 11 14 21 32 15 8 -2 18 -4 23 -4z m69 6 c0 -2 -9 -6 -20 -9 -11 -3 -18 -1 -14 4 5 9 34 13 34 5z" fill="#101c33"/>
<path d="M4595 2012 c-11 -2 -28 -11 -39 -21 -45 -38 -46 -56 -46 -535 0 -250 4 -457 9 -460 4 -3 29 8 55 24 34 22 59 30 91 30 l45 0 0 423 c-1 330 -4 430 -14 460 -23 64 -55 88 -101 79z m29 -218 c14 -13 16 -52 16 -270 l0 -254 -35 0 -35 0 0 258 c0 187 3 261 12 270 16 16 23 15 42 -4z" fill="#101c33"/>
<path d="M4343 1978 c-43 -48 -43 -49 -43 -535 l0 -469 73 4 c55 3 77 9 95 25 l22 20 0 438 c0 286 -4 447 -11 466 -17 45 -49 73 -84 73 -20 0 -39 -8 -52 -22z m87 -178 c13 -8 15 -52 18 -275 l3 -265 -41 0 -41 0 3 258 c2 201 6 263 17 275 15 19 20 20 41 7z" fill="#101c33"/>
<path d="M4775 1976 c-42 -42 -45 -79 -45 -518 l0 -416 41 -33 c36 -28 44 -31 61 -20 16 10 23 10 37 -3 10 -9 19 -16 22 -16 2 0 5 44 5 97 2 128 2 93 -3 382 -2 167 0 258 7 265 17 17 12 180 -6 226 -26 64 -76 79 -119 36z m9 -192 c3 -9 6 -130 6 -270 0 -247 -1 -254 -20 -254 -19 0 -20 7 -20 263 0 145 3 267 7 270 11 11 20 8 27 -9z" fill="#101c33"/>
<path d="M4163 1943 c-8 -21 -18 -75 -21 -120 -4 -66 -2 -87 12 -108 15 -22 16 -53 12 -268 -5 -280 -5 -275 -2 -387 l2 -85 52 -3 53 -3 -3 484 c-3 461 -4 486 -22 506 -31 34 -64 27 -83 -16z m87 -428 c0 -170 -4 -265 -10 -265 -6 0 -10 93 -10 258 0 228 3 272 17 272 2 0 3 -119 3 -265z" fill="#101c33"/>
<path d="M3257 1963 c-12 -11 -8 -113 6 -136 8 -15 14 -102 17 -287 l6 -265 2 295 c2 349 -3 421 -31 393z" fill="#101c33"/>
<path d="M15750 1848 c-22 -35 -40 -69 -40 -75 0 -10 178 -13 855 -13 l856 0 -17 33 c-9 17 -28 51 -43 74 l-26 43 -773 0 -773 0 -39 -62z" fill="#101c33"/>
<path d="M2993 1869 c-30 -9 -32 -12 -26 -42 3 -17 10 -36 14 -41 5 -6 9 -90 9 -188 0 -98 3 -178 6 -178 3 0 14 5 24 10 14 8 39 4 95 -12 58 -17 78 -19 84 -10 5 8 14 -1 27 -25 l19 -38 3 224 c2 196 0 230 -15 268 l-18 43 -95 -1 c-52 0 -109 -5 -127 -10z m237 -140 c0 -20 -24 -26 -35 -9 -8 13 14 42 26 34 5 -3 9 -14 9 -25z" fill="#101c33"/>
<path d="M2546 1829 c-26 -20 -27 -24 -24 -113 3 -75 6 -90 18 -87 8 2 27 6 43 9 l27 4 0 104 c0 95 -2 104 -19 104 -10 0 -30 -9 -45 -21z m1 -156 c-2 -16 -4 -3 -4 27 0 30 2 43 4 28 2 -16 2 -40 0 -55z" fill="#101c33"/>
<path d="M2630 1745 l0 -105 150 0 150 0 0 105 0 105 -150 0 -150 0 0 -105z m100 -15 c0 -33 -4 -60 -10 -60 -11 0 -14 103 -3 113 12 12 13 8 13 -53z m40 -6 c0 -30 -4 -54 -10 -54 -6 0 -10 27 -10 61 0 37 4 58 10 54 6 -3 10 -31 10 -61z m40 6 c0 -33 -4 -60 -10 -60 -6 0 -10 27 -10 60 0 33 4 60 10 60 6 0 10 -27 10 -60z" fill="#101c33"/>
<path d="M8930 1780 c0 -19 7 -20 245 -20 238 0 245 1 245 20 0 19 -7 20 -245 20 -238 0 -245 -1 -245 -20z" fill="#101c33"/>
<path d="M9450 1780 c0 -18 7 -20 55 -20 48 0 55 2 55 20 0 18 -7 20 -55 20 -48 0 -55 -2 -55 -20z" fill="#101c33"/>
<path d="M15686 1723 c-11 -23 -46 -128 -46 -140 0 -2 414 -3 921 -3 l921 0 -6 28 c-4 15 -16 53 -28 85 l-20 57 -864 0 -863 0 -15 -27z" fill="#101c33"/>
<path d="M8850 1500 l0 -230 130 0 130 0 0 -40 c0 -39 1 -40 35 -40 l35 0 0 -55 0 -56 63 6 c34 3 79 8 100 10 l37 5 0 -385 0 -385 23 0 c12 0 39 3 60 6 l37 7 0 693 0 694 -325 0 -325 0 0 -230z" fill="#101c33"/>
<path d="M9530 1040 l0 -690 29 0 c66 0 61 -57 61 696 l0 684 -45 0 -45 0 0 -690z" fill="#101c33"/>
<path d="M18544 1671 c-26 -12 -53 -36 -73 -65 -31 -45 -61 -106 -61 -124 0 -5 64 -52 143 -105 107 -73 197 -147 367 -303 124 -114 232 -220 240 -236 9 -16 18 -26 21 -23 3 3 5 -3 5 -13 0 -9 6 -45 14 -79 12 -53 17 -63 36 -63 18 0 22 7 28 53 3 28 6 73 6 100 l0 47 40 0 c40 0 40 0 40 -39 0 -21 3 -66 6 -100 l7 -61 112 0 c126 0 125 -1 125 74 l0 43 -475 284 -476 284 5 35 c9 57 67 163 103 185 32 20 42 35 24 35 -6 0 -30 14 -55 30 -38 26 -116 60 -135 60 -3 0 -25 -9 -47 -19z m76 -32 l35 -30 -42 27 c-24 15 -43 28 -43 30 0 11 18 0 50 -27z m0 -30 c69 -51 96 -78 43 -43 -16 9 -49 31 -75 48 -41 27 -59 46 -43 46 2 0 36 -23 75 -51z m-18 -29 c45 -33 79 -60 75 -60 -16 0 -175 105 -171 112 8 12 8 12 96 -52z m-9 -39 c136 -96 52 -65 -106 40 -14 9 2 31 16 22 7 -3 47 -31 90 -62z m-23 -36 c44 -31 80 -61 80 -67 0 -14 -21 -5 -116 53 -60 36 -81 54 -77 65 7 20 18 15 113 -51z m-29 -46 c49 -34 89 -68 89 -75 0 -17 -1 -17 -122 53 -72 41 -89 59 -71 76 10 10 9 11 104 -54z m259 -229 c65 -44 305 -262 320 -290 28 -52 -6 -27 -182 136 -106 98 -197 181 -202 186 -27 22 12 3 64 -32z m278 -188 c26 -40 7 -33 -39 15 -43 45 -43 45 -10 27 18 -10 40 -29 49 -42z m70 -67 c6 -25 -34 -2 -41 25 -5 20 -4 20 16 7 12 -8 24 -22 25 -32z m32 -77 c0 -12 -14 -10 -28 4 -19 19 -14 29 8 16 11 -7 20 -16 20 -20z m6 -45 c-7 -7 -26 7 -26 19 0 6 6 6 15 -2 9 -7 13 -15 11 -17z" fill="#101c33"/>
<path d="M8480 1400 l0 -260 49 0 50 0 3 -37 c3 -35 6 -38 36 -41 l32 -3 0 300 0 301 -85 0 -85 0 0 -260z" fill="#101c33"/>
<path d="M22761 1615 c-7 -22 -16 -73 -20 -112 l-7 -73 38 0 38 0 -1 58 c0 31 -8 82 -18 112 l-18 55 -12 -40z" fill="#101c33"/>
<path d="M25016 1598 c-9 -31 -16 -81 -16 -112 l0 -56 38 0 38 0 -7 73 c-4 39 -14 90 -22 112 l-14 40 -17 -57z" fill="#101c33"/>
<path d="M2030 1591 c0 -48 -1 -50 -35 -61 -28 -9 -33 -15 -25 -25 9 -11 22 -9 73 6 51 15 97 19 252 20 150 1 182 4 153 12 -31 9 -37 15 -40 41 -4 40 -38 51 -38 12 0 -31 2 -31 -84 -6 -48 13 -74 16 -87 10 -26 -14 -29 -13 -29 15 0 18 -5 25 -20 25 -16 0 -20 -7 -20 -34 0 -29 -4 -36 -31 -45 -18 -6 -34 -11 -35 -11 -2 0 -4 20 -4 45 0 33 -4 45 -15 45 -11 0 -15 -12 -15 -49z" fill="#101c33"/>
<path d="M2548 1605 c-23 -13 -27 -23 -33 -77 -9 -88 -3 -180 13 -186 8 -2 13 13 14 55 l2 58 6 -70 6 -70 2 60 c2 53 16 133 37 218 8 31 -4 35 -47 12z" fill="#101c33"/>
<path d="M2625 1608 c-22 -66 -35 -152 -35 -235 l0 -99 36 -35 c20 -18 46 -52 59 -74 37 -64 32 -213 -10 -263 -1 -1 -28 -7 -60 -13 -49 -9 -64 -8 -97 7 -53 24 -87 9 -80 -35 4 -31 5 -31 63 -31 33 0 59 4 59 10 0 6 45 10 116 10 l117 0 -5 300 c-5 255 -4 303 9 315 8 8 21 15 28 15 21 0 45 -41 45 -75 0 -26 -6 -34 -32 -46 -17 -8 -34 -20 -36 -27 -2 -7 38 8 89 34 58 30 87 49 77 52 -13 2 -18 13 -18 39 0 20 -5 65 -11 100 l-11 63 -149 0 c-111 0 -151 -3 -154 -12z m155 -53 c0 -8 -7 -15 -15 -15 -8 0 -15 7 -15 15 0 8 7 15 15 15 8 0 15 -7 15 -15z m-46 -91 c12 -11 16 -35 16 -85 l0 -69 -46 0 -46 0 4 71 c3 55 8 74 23 85 24 18 30 18 49 -2z" fill="#101c33"/>
<path d="M23007 1569 c-4 -13 -7 -50 -7 -81 0 -45 3 -58 15 -58 12 0 15 13 14 63 0 34 -4 71 -8 81 -7 18 -8 18 -14 -5z" fill="#101c33"/>
<path d="M23556 1560 c-12 -62 -7 -130 9 -130 12 0 15 14 15 68 0 77 -14 112 -24 62z" fill="#101c33"/>
<path d="M24237 1577 c-4 -10 -7 -48 -7 -83 0 -50 3 -64 15 -64 12 0 15 12 14 53 -1 28 -4 66 -8 82 -5 25 -8 27 -14 12z" fill="#101c33"/>
<path d="M24336 1560 c-12 -62 -7 -130 9 -130 12 0 15 14 15 68 0 77 -14 112 -24 62z" fill="#101c33"/>
<path d="M24787 1569 c-4 -13 -7 -50 -7 -81 0 -45 3 -58 15 -58 12 0 15 13 14 63 0 34 -4 71 -8 81 -7 18 -8 18 -14 -5z" fill="#101c33"/>
<path d="M23456 1571 c-5 -7 -11 -42 -14 -77 -4 -60 -4 -64 17 -64 19 0 21 5 20 53 -1 67 -12 107 -23 88z" fill="#101c33"/>
<path d="M15626 1533 c-3 -21 -6 -59 -6 -85 l0 -48 40 0 c44 0 46 3 25 40 -18 31 -19 53 -2 47 6 -2 17 3 23 11 9 13 14 12 32 -6 11 -11 24 -37 28 -57 l6 -36 77 3 76 3 3 40 c4 48 16 63 37 45 8 -7 15 -9 15 -5 0 4 7 2 15 -5 10 -8 15 -25 13 -44 l-3 -31 79 -3 c71 -3 78 -1 72 15 -8 20 24 85 39 80 5 -2 17 -25 25 -50 l15 -47 83 0 c89 0 86 -2 97 63 3 20 11 37 18 37 7 -1 23 -23 36 -51 l25 -50 70 3 70 3 11 50 c10 48 32 68 43 37 2 -8 -3 -10 -15 -6 -13 5 -12 2 5 -10 14 -11 22 -28 22 -47 l0 -29 85 0 c61 0 85 4 86 13 1 6 2 19 3 27 2 8 3 25 4 38 1 12 8 22 15 22 13 -1 47 -62 47 -86 0 -12 15 -14 88 -12 l87 3 1 30 c1 60 4 65 27 65 33 0 47 -19 47 -62 l0 -39 78 3 77 3 3 55 c3 57 15 80 39 80 10 0 14 -7 10 -20 -4 -14 2 -25 19 -36 22 -15 23 -18 9 -44 -8 -16 -15 -31 -15 -35 0 -3 20 -5 45 -5 57 0 62 10 46 101 l-13 69 -928 0 -927 0 -7 -37z" fill="#101c33"/>
<path d="M18774 1551 c-38 -23 -67 -69 -88 -139 -15 -51 -15 -53 7 -66 113 -72 899 -536 907 -536 5 0 10 5 10 10 0 7 43 8 125 4 78 -5 125 -3 125 3 0 13 -101 133 -141 167 -19 16 -221 152 -449 302 -268 177 -423 274 -440 274 -14 0 -39 -9 -56 -19z" fill="#101c33"/>
<path d="M21405 1563 c-291 -27 -692 -157 -977 -319 l-98 -55 88 -73 c48 -40 126 -115 174 -167 47 -52 98 -108 114 -125 l29 -32 460 52 460 51 210 114 c116 62 226 123 245 134 57 33 24 6 -142 -117 -87 -64 -158 -118 -158 -120 0 -18 69 28 228 150 103 79 245 178 316 220 l129 77 -48 24 c-145 74 -413 152 -610 178 -105 13 -315 18 -420 8z m175 -38 c-55 -36 -75 -41 -98 -27 -24 16 57 62 108 62 l45 -1 -55 -34z m-190 21 c0 -12 -71 -46 -96 -46 l-28 0 23 17 c27 18 101 40 101 29z m78 -21 c-22 -15 -51 -25 -70 -25 l-33 1 30 24 c21 17 42 25 70 25 l40 0 -37 -25z m222 -10 c-58 -36 -61 -37 -99 -26 -23 6 -23 7 15 33 29 20 52 27 89 27 l50 1 -55 -35z m168 20 c2 -2 -21 -17 -51 -34 -34 -19 -68 -31 -92 -31 -44 0 -43 9 10 49 35 26 46 29 85 24 25 -3 46 -7 48 -8z m-588 -10 c0 -9 -60 -35 -82 -35 -22 0 -21 1 7 20 27 18 75 28 75 15z m680 -4 c23 -7 21 -10 -38 -44 -53 -31 -70 -36 -98 -31 -19 3 -34 9 -34 13 0 3 22 20 48 38 47 32 75 37 122 24z m-796 -21 c-15 -15 -76 -31 -68 -19 7 12 42 27 64 28 9 1 11 -2 4 -9z m923 -9 c8 -4 -11 -21 -52 -44 -62 -36 -68 -37 -107 -27 l-41 12 59 38 c49 32 65 38 94 34 19 -3 41 -9 47 -13z m-1023 -11 c-14 -14 -76 -31 -69 -20 3 6 20 14 38 19 43 12 42 12 31 1z m1133 -21 c27 -10 26 -10 -46 -50 -69 -37 -75 -39 -112 -28 -21 7 -39 15 -39 18 0 3 28 23 63 44 63 38 74 39 134 16z m108 -38 l40 -18 -80 -40 -80 -40 -39 18 -40 17 65 41 c73 46 79 47 134 22z m145 -71 c0 -3 -35 -23 -77 -44 l-76 -38 -39 18 c-21 9 -38 20 -38 23 0 3 32 25 72 48 l71 41 44 -21 c23 -12 43 -24 43 -27z" fill="#101c33"/>
<path d="M17369 1513 c-13 -16 -12 -17 4 -4 9 7 17 15 17 17 0 8 -8 3 -21 -13z" fill="#101c33"/>
<path d="M1654 1489 c-9 -18 -35 -74 -59 -125 l-44 -94 195 0 c123 0 194 4 194 10 0 6 -34 62 -77 125 l-76 115 -58 0 c-55 0 -59 -2 -75 -31z" fill="#101c33"/>
<path d="M2120 1285 c0 -218 1 -225 20 -225 17 0 18 3 9 23 -12 26 24 140 64 203 21 34 35 43 85 58 33 10 65 15 71 12 6 -4 31 -4 56 0 l46 6 -3 72 -3 71 -172 3 -173 2 0 -225z" fill="#101c33"/>
<path d="M2028 1483 l-48 -14 0 -205 0 -204 55 0 55 0 0 220 c0 121 -3 220 -7 219 -5 -1 -29 -8 -55 -16z" fill="#101c33"/>
<path d="M15710 1472 c0 -13 -4 -21 -10 -17 -6 3 -6 -5 0 -22 12 -38 20 -113 12 -113 -4 0 -6 -31 -4 -70 l4 -70 896 0 896 0 -34 -35 -34 -35 115 0 c64 0 119 3 122 7 4 3 2 12 -4 19 -6 8 -9 34 -7 59 l3 45 -127 0 -128 0 0 39 c0 22 -4 41 -10 43 -9 3 1 98 15 131 6 13 4 16 -9 11 -11 -4 -16 -1 -16 10 0 22 -17 20 -25 -3 -6 -20 -8 -100 -3 -141 l3 -25 -806 -3 -806 -2 1 75 c1 65 -2 77 -21 97 l-23 22 0 -22z" fill="#101c33"/>
<path d="M16178 1460 c-9 -16 -15 -37 -13 -47 2 -10 7 -35 10 -55 4 -28 11 -38 24 -38 16 0 18 8 16 58 -1 31 -4 64 -7 72 -4 8 -8 21 -10 27 -2 7 -11 -1 -20 -17z" fill="#101c33"/>
<path d="M16426 1474 c-3 -8 -6 -47 -6 -85 0 -62 2 -69 20 -69 13 0 20 7 20 20 0 11 5 28 11 38 9 15 6 28 -14 65 -18 35 -26 43 -31 31z" fill="#101c33"/>
<path d="M17138 1477 c-12 -13 -14 -46 -9 -134 1 -27 27 -31 34 -5 11 39 18 114 12 132 -7 23 -18 25 -37 7z" fill="#101c33"/>
<path d="M15940 1423 c0 -77 8 -103 31 -103 16 0 19 8 21 55 1 30 2 63 2 73 1 9 -4 17 -11 17 -6 0 -15 3 -19 8 -17 17 -24 4 -24 -50z" fill="#101c33"/>
<path d="M16889 1470 c-5 -86 7 -150 27 -150 21 0 13 108 -9 140 -11 16 -17 19 -18 10z" fill="#101c33"/>
<path d="M16648 1426 c-7 -64 2 -106 24 -106 17 0 19 6 16 67 -2 53 -7 68 -19 71 -12 2 -18 -6 -21 -32z" fill="#101c33"/>
<path d="M1380 1390 l0 -50 90 0 c88 0 91 1 100 26 6 14 10 36 10 49 0 24 -1 25 -62 19 -52 -5 -67 -11 -85 -33 l-23 -26 0 33 c0 22 -5 32 -15 32 -11 0 -15 -12 -15 -50z" fill="#101c33"/>
<path d="M2988 1389 c-21 -11 -38 -22 -38 -24 0 -3 53 -5 117 -5 125 0 135 7 44 34 -68 20 -77 20 -123 -5z" fill="#101c33"/>
<path d="M23794 1084 c-58 -181 -109 -333 -111 -339 -3 -5 17 14 43 42 58 62 147 123 179 123 35 0 142 -76 188 -134 22 -28 38 -44 35 -36 -3 8 -54 161 -113 340 -59 179 -109 327 -110 329 -2 1 -52 -145 -111 -325z" fill="#101c33"/>
<path d="M22712 1383 c3 -17 40 -18 572 -21 574 -2 585 -2 586 31 0 4 -261 7 -581 7 -547 0 -580 -1 -577 -17z" fill="#101c33"/>
<path d="M23942 1383 c3 -17 39 -18 578 -18 539 0 575 1 578 18 3 16 -30 17 -578 17 -548 0 -581 -1 -578 -17z" fill="#101c33"/>
<path d="M15620 1319 l0 -70 37 3 c44 4 55 28 27 59 -16 17 -16 19 -1 19 12 0 17 9 17 30 0 28 -2 30 -40 30 l-40 0 0 -71z" fill="#101c33"/>
<path d="M15770 1371 c0 -11 -3 -26 -6 -35 -5 -14 6 -16 86 -16 80 0 91 2 86 16 -3 9 -6 24 -6 35 0 17 -8 19 -80 19 -72 0 -80 -2 -80 -19z" fill="#101c33"/>
<path d="M16002 1355 l-1 -35 85 0 c74 0 85 2 80 16 -3 9 -6 24 -6 35 0 17 -8 19 -78 19 l-79 0 -1 -35z" fill="#101c33"/>
<path d="M16224 1374 c3 -9 6 -24 6 -35 0 -17 8 -19 90 -19 l89 0 -1 35 -1 35 -95 0 c-82 0 -93 -2 -88 -16z" fill="#101c33"/>
<path d="M16482 1370 c-27 -44 -18 -50 73 -50 77 0 85 2 85 19 0 45 -9 51 -79 51 -55 0 -68 -3 -79 -20z" fill="#101c33"/>
<path d="M16700 1355 l0 -35 95 0 c52 0 95 4 95 9 0 5 -4 21 -10 35 -9 25 -12 26 -95 26 l-85 0 0 -35z" fill="#101c33"/>
<path d="M16940 1355 l0 -35 90 0 c87 0 90 1 90 23 0 38 -19 47 -102 47 l-78 0 0 -35z" fill="#101c33"/>
<path d="M17180 1371 c0 -11 -3 -26 -6 -35 -5 -14 6 -16 85 -16 83 0 91 2 91 19 0 46 -8 51 -91 51 -71 0 -79 -2 -79 -19z" fill="#101c33"/>
<path d="M17407 1364 c-3 -16 0 -28 8 -31 9 -3 12 -16 8 -39 l-6 -34 47 0 46 0 0 65 0 65 -49 0 c-44 0 -49 -2 -54 -26z" fill="#101c33"/>
<path d="M3186 1320 c-9 -22 -16 -58 -16 -79 0 -22 -6 -44 -15 -51 -12 -10 -15 -43 -15 -176 l0 -164 25 0 c23 0 25 -4 25 -40 l0 -40 210 0 210 0 0 164 c0 131 -3 166 -14 176 -8 6 -16 33 -18 58 l-3 47 -162 3 -163 2 0 37 c0 29 -32 103 -45 103 -1 0 -10 -18 -19 -40z m278 -166 c11 -11 16 -35 16 -80 l0 -64 -50 0 -50 0 0 68 c0 40 5 73 12 80 17 17 54 15 72 -4z m-247 -66 c-3 -8 -6 -5 -6 6 -1 11 2 17 5 13 3 -3 4 -12 1 -19z m0 -120 c-3 -8 -6 -5 -6 6 -1 11 2 17 5 13 3 -3 4 -12 1 -19z m0 -130 c-3 -8 -6 -5 -6 6 -1 11 2 17 5 13 3 -3 4 -12 1 -19z m143 -3 c0 -16 -6 -25 -15 -25 -9 0 -15 9 -15 25 0 16 6 25 15 25 9 0 15 -9 15 -25z m80 0 c0 -14 -4 -25 -10 -25 -5 0 -10 11 -10 25 0 14 5 25 10 25 6 0 10 -11 10 -25z m40 0 c0 -14 -4 -25 -10 -25 -5 0 -10 11 -10 25 0 14 5 25 10 25 6 0 10 -11 10 -25z" fill="#101c33"/>
<path d="M2375 1330 c-125 -13 -147 -31 -186 -154 -24 -73 -24 -82 -1 -98 17 -12 33 -71 33 -120 0 -9 7 -19 15 -22 8 -3 14 -14 14 -25 0 -27 23 -32 71 -16 50 18 69 8 69 -37 0 -19 4 -28 13 -25 7 2 12 20 12 42 0 35 3 39 39 51 33 12 41 12 59 -1 22 -15 84 -20 125 -9 37 10 51 51 48 136 -2 41 -9 85 -15 97 -7 12 -41 54 -77 94 -57 63 -107 97 -139 95 -5 -1 -41 -4 -80 -8z" fill="#101c33"/>
<path d="M2900 1095 l0 -245 85 0 c78 0 85 2 85 20 0 11 7 20 15 20 8 0 15 -9 15 -20 0 -11 5 -20 10 -20 6 0 10 63 10 168 1 131 4 171 15 186 8 11 15 37 15 59 0 21 5 47 10 58 10 18 6 19 -125 19 l-135 0 0 -245z m230 150 c0 -8 -4 -15 -10 -15 -5 0 -10 7 -10 15 0 8 5 15 10 15 6 0 10 -7 10 -15z m-60 -115 c0 -5 -4 -10 -10 -10 -5 0 -10 5 -10 10 0 6 5 10 10 10 6 0 10 -4 10 -10z m40 0 c0 -5 -4 -10 -10 -10 -5 0 -10 5 -10 10 0 6 5 10 10 10 6 0 10 -4 10 -10z m-40 -65 c0 -19 -4 -35 -10 -35 -5 0 -10 16 -10 35 0 19 5 35 10 35 6 0 10 -16 10 -35z m40 0 c0 -19 -4 -35 -10 -35 -5 0 -10 16 -10 35 0 19 5 35 10 35 6 0 10 -16 10 -35z" fill="#101c33"/>
<path d="M22739 1311 c18 -26 21 -44 21 -150 l0 -121 235 0 c181 0 235 3 235 13 0 9 2 9 8 -1 7 -9 66 -12 262 -10 l254 3 43 130 c24 72 46 138 49 148 5 16 -26 17 -561 17 l-566 0 20 -29z" fill="#101c33"/>
<path d="M23960 1333 c0 -4 21 -72 47 -150 l47 -143 257 0 c197 0 259 3 262 13 4 10 6 10 6 0 1 -10 55 -13 236 -13 l235 0 0 123 c1 91 4 127 15 141 8 11 15 23 15 28 0 4 -252 8 -560 8 -308 0 -560 -3 -560 -7z" fill="#101c33"/>
<path d="M2838 1314 l-28 -15 0 -224 0 -225 35 0 35 0 0 240 c0 132 -3 240 -7 240 -5 -1 -20 -8 -35 -16z" fill="#101c33"/>
<path d="M744 1306 c-3 -7 -4 -35 -2 -62 l3 -49 398 -3 c218 -1 397 1 397 6 0 4 -6 17 -14 27 -12 17 -12 23 0 47 8 15 14 32 14 38 0 7 -126 10 -395 10 -327 0 -397 -2 -401 -14z" fill="#101c33"/>
<path d="M3333 1275 c-29 -13 -53 -26 -53 -29 0 -3 60 -6 133 -6 l132 1 -60 23 c-93 36 -97 36 -152 11z" fill="#101c33"/>
<path d="M1556 1241 c-3 -4 1 -17 9 -27 11 -15 14 -55 15 -175 l0 -157 48 -17 c26 -9 67 -20 91 -22 38 -5 53 -14 95 -58 57 -58 99 -88 109 -78 4 3 7 80 7 170 0 138 2 163 15 163 12 0 15 18 15 105 l0 105 -199 0 c-110 0 -202 -4 -205 -9z" fill="#101c33"/>
<path d="M19979 1231 c-65 -21 -141 -69 -219 -139 l-55 -49 67 -72 c38 -39 80 -89 94 -111 l27 -40 383 0 c337 0 383 -2 378 -15 -5 -11 1 -15 22 -15 l27 0 -19 23 c-177 200 -292 309 -397 375 -52 32 -161 62 -222 61 -16 0 -55 -8 -86 -18z m81 -5 c0 -2 -33 -30 -72 -62 -163 -130 -166 -132 -78 -39 47 50 92 93 100 97 17 7 50 10 50 4z m-125 -42 c-22 -20 -62 -54 -90 -77 l-50 -41 55 58 c49 51 105 97 120 96 3 -1 -13 -17 -35 -36z m208 30 c5 -6 -125 -110 -248 -199 -22 -16 12 24 75 88 88 90 121 117 141 117 14 0 28 -3 32 -6z m83 -28 c10 -8 17 -16 14 -19 -4 -3 -281 -201 -350 -250 -8 -6 50 55 130 136 148 150 166 162 206 133z m-366 -29 c0 -2 -10 -12 -22 -23 l-23 -19 19 23 c18 21 26 27 26 19z m438 -17 c17 -11 32 -23 32 -27 0 -5 -37 -33 -83 -65 -45 -31 -136 -93 -202 -138 l-120 -83 165 167 c91 91 167 166 170 166 3 0 20 -9 38 -20z m89 -76 c19 -14 33 -32 31 -40 -2 -7 -66 -54 -142 -104 -101 -65 -148 -90 -170 -90 -29 1 -24 7 104 130 74 71 137 130 139 130 2 0 19 -12 38 -26z m89 -92 c22 -19 44 -54 44 -71 0 -6 -22 -22 -50 -36 -39 -20 -64 -25 -122 -25 l-73 1 80 74 c44 41 85 74 90 74 6 0 19 -8 31 -17z" fill="#101c33"/>
<path d="M8850 1215 c0 -20 -5 -25 -25 -25 -24 0 -25 -3 -25 -60 l0 -60 68 0 c38 0 117 3 175 7 l107 6 0 39 c0 37 -1 38 -35 38 -34 0 -35 1 -35 40 l0 40 -115 0 -115 0 0 -25z" fill="#101c33"/>
<path d="M15455 1175 l-1 -65 115 0 115 0 -34 35 -34 35 42 0 c40 0 42 1 42 30 l0 30 -122 0 -123 0 0 -65z" fill="#101c33"/>
<path d="M3655 1171 c-55 -7 -72 -31 -36 -51 20 -10 21 -19 21 -200 l0 -189 50 6 c49 6 51 5 95 -39 25 -26 45 -55 45 -67 0 -31 43 -28 86 7 l34 27 0 100 c0 55 -4 116 -9 135 -5 19 -12 48 -15 63 l-7 29 36 -27 35 -27 0 115 c0 110 -1 115 -22 121 -28 7 -244 5 -313 -3z m195 -191 c0 -27 -4 -50 -10 -50 -5 0 -10 23 -10 50 0 28 5 50 10 50 6 0 10 -22 10 -50z m40 0 c0 -27 -4 -50 -10 -50 -5 0 -10 23 -10 50 0 28 5 50 10 50 6 0 10 -22 10 -50z" fill="#101c33"/>
<path d="M740 1100 l0 -71 33 6 c68 13 119 -38 87 -88 -11 -19 -10 -20 25 -14 21 3 45 13 55 22 9 8 33 15 53 15 19 0 48 5 63 10 37 14 82 -4 90 -36 7 -26 16 -29 104 -39 30 -4 82 -17 116 -31 71 -28 83 -29 110 -9 10 8 34 15 52 15 l32 0 0 145 0 145 -410 0 -410 0 0 -70z" fill="#101c33"/>
<path d="M4068 1147 l-48 -21 0 -88 0 -89 48 7 c55 7 56 8 71 53 14 44 14 103 -1 136 -13 29 -9 29 -70 2z" fill="#101c33"/>
<path d="M15678 1137 c20 -21 32 -43 32 -60 l0 -27 850 0 850 0 0 27 c0 17 12 39 32 60 l32 33 -914 0 -914 0 32 -33z" fill="#101c33"/>
<path d="M4965 1151 l-50 -6 0 -78 c0 -95 12 -109 90 -105 41 2 52 7 60 26 13 29 19 28 32 -5 l11 -28 1 28 c2 49 21 28 21 -23 0 -27 -4 -50 -10 -50 -5 0 -10 6 -11 13 0 6 -4 3 -9 -8 -5 -11 -9 -150 -9 -308 l-1 -288 21 11 c16 9 30 8 60 -4 47 -19 49 -19 49 -3 0 6 -18 22 -40 35 -39 22 -80 82 -80 118 0 26 31 84 46 84 7 0 20 -10 28 -22 l16 -22 22 21 c13 11 45 30 71 41 56 25 107 59 107 73 0 5 -29 9 -65 9 l-65 0 0 30 c0 17 6 39 12 50 10 16 10 24 0 41 -9 14 -12 68 -11 192 l1 172 -29 6 c-35 8 -201 8 -268 0z" fill="#101c33"/>
<path d="M7478 1103 c-14 -4 -18 -15 -18 -58 0 -60 4 -65 43 -58 26 5 27 8 27 64 0 62 -3 65 -52 52z" fill="#101c33"/>
<path d="M17422 1078 c3 -22 7 -23 125 -26 117 -3 122 -2 150 22 l28 25 -153 1 -153 0 3 -22z" fill="#101c33"/>
<path d="M7048 1063 l-178 -3 0 -40 c0 -38 -1 -39 -42 -48 -45 -10 430 -6 550 4 l63 6 -3 41 -3 42 -105 0 c-58 1 -185 -1 -282 -2z" fill="#101c33"/>
<path d="M9255 1061 l-70 -6 -3 -322 -2 -323 85 0 85 0 0 330 c0 258 -3 330 -12 328 -7 -1 -44 -4 -83 -7z" fill="#101c33"/>
<path d="M8750 1040 c-91 -4 -166 -8 -168 -9 -1 0 -1 -139 0 -308 l3 -308 203 -3 202 -2 0 50 0 50 70 0 70 0 0 -50 c0 -27 5 -50 10 -50 6 0 10 113 10 320 l0 320 -117 -2 c-65 -1 -192 -5 -283 -8z" fill="#101c33"/>
<path d="M13385 1040 c-11 -5 -32 -9 -47 -9 -26 -1 -28 -4 -28 -45 0 -26 -5 -46 -12 -49 -7 -3 128 -6 300 -6 l312 -1 0 60 0 60 -252 -1 c-139 0 -262 -4 -273 -9z" fill="#101c33"/>
<path d="M1968 1021 c-16 -15 -18 -38 -18 -160 l0 -142 48 7 c26 4 68 17 94 30 49 25 88 31 88 14 0 -5 9 -10 20 -10 18 0 20 7 20 76 0 66 -3 78 -22 95 -16 13 -20 21 -11 26 9 6 9 17 0 46 l-12 37 -95 -1 c-77 0 -98 -4 -112 -18z" fill="#101c33"/>
<path d="M15704 1024 c3 -9 6 -101 6 -205 0 -182 1 -189 20 -189 19 0 20 7 20 189 0 104 3 196 6 205 5 13 -1 16 -26 16 -25 0 -31 -3 -26 -16z" fill="#101c33"/>
<path d="M15766 1018 c-10 -40 -7 -388 4 -388 6 0 10 57 10 150 0 147 1 152 25 175 31 32 74 33 103 2 20 -21 22 -35 25 -177 l3 -155 2 192 c1 105 -1 198 -4 207 -5 13 -22 16 -84 16 -72 0 -78 -2 -84 -22z" fill="#101c33"/>
<path d="M15948 835 c3 -196 4 -205 22 -205 19 0 20 8 20 189 0 104 3 196 6 205 5 12 0 16 -22 16 l-29 0 3 -205z" fill="#101c33"/>
<path d="M16006 1018 c-10 -40 -7 -388 4 -388 6 0 10 58 10 153 0 148 1 154 23 175 29 27 67 28 98 3 23 -18 24 -26 27 -153 4 -204 9 -203 10 2 1 102 -1 195 -4 208 -6 20 -12 22 -84 22 -72 0 -78 -2 -84 -22z" fill="#101c33"/>
<path d="M16184 1024 c3 -9 6 -101 6 -205 0 -181 1 -189 20 -189 18 0 19 9 22 205 l3 205 -29 0 c-22 0 -27 -4 -22 -16z" fill="#101c33"/>
<path d="M16246 1024 c-3 -9 -5 -41 -5 -72 1 -31 3 -48 6 -37 14 58 79 82 124 46 23 -18 24 -26 29 -178 l6 -158 2 192 c1 105 -1 198 -4 207 -9 23 -149 23 -158 0z" fill="#101c33"/>
<path d="M16418 835 c3 -196 4 -205 22 -205 19 0 20 8 20 183 0 100 3 192 6 205 6 19 3 22 -22 22 l-29 0 3 -205z" fill="#101c33"/>
<path d="M16487 1033 c-4 -3 -7 -36 -6 -72 1 -55 2 -61 10 -36 16 55 75 73 120 36 22 -18 24 -27 30 -177 l6 -159 1 185 c1 102 -1 195 -4 208 -6 20 -12 22 -78 22 -40 0 -76 -3 -79 -7z" fill="#101c33"/>
<path d="M16654 1024 c3 -9 6 -101 6 -205 0 -181 1 -189 20 -189 18 0 19 9 22 205 l3 205 -29 0 c-22 0 -27 -4 -22 -16z" fill="#101c33"/>
<path d="M16716 1024 c-3 -9 -5 -102 -4 -207 l2 -192 5 150 c7 162 15 191 58 201 42 11 77 -7 90 -46 l12 -35 0 57 c1 87 0 88 -84 88 -57 0 -74 -3 -79 -16z" fill="#101c33"/>
<path d="M16888 835 c3 -196 4 -205 22 -205 19 0 20 8 20 183 0 100 3 192 6 205 6 19 3 22 -22 22 l-29 0 3 -205z" fill="#101c33"/>
<path d="M16950 1014 c-6 -14 -9 -107 -8 -207 l2 -182 5 150 c4 91 11 159 19 172 14 26 51 38 87 29 41 -10 49 -41 56 -201 l5 -150 2 185 c1 102 -1 195 -4 208 -6 20 -12 22 -80 22 -71 0 -75 -1 -84 -26z" fill="#101c33"/>
<path d="M17124 1024 c3 -9 6 -101 6 -205 0 -182 1 -189 20 -189 19 0 20 7 20 189 0 104 3 196 6 205 5 13 -1 16 -26 16 -25 0 -31 -3 -26 -16z" fill="#101c33"/>
<path d="M17186 1018 c-3 -13 -5 -106 -4 -208 l2 -185 6 158 c5 152 6 160 29 178 32 26 73 24 99 -4 21 -22 22 -33 22 -175 0 -95 4 -152 10 -152 11 0 15 367 4 394 -5 13 -22 16 -84 16 -72 0 -78 -2 -84 -22z" fill="#101c33"/>
<path d="M17368 835 c3 -196 4 -205 22 -205 19 0 20 8 20 183 0 100 3 192 6 205 6 19 3 22 -22 22 l-29 0 3 -205z" fill="#101c33"/>
<path d="M4586 1000 c-40 -26 -47 -35 -42 -53 3 -12 6 -79 6 -149 l0 -128 120 0 120 0 0 121 c0 66 5 129 10 139 9 16 2 25 -43 60 -67 50 -104 52 -171 10z m104 -109 c5 -11 10 -51 10 -90 l0 -71 -36 0 -36 0 4 80 c2 58 7 84 18 90 22 14 28 12 40 -9z m-100 -106 c0 -42 -3 -55 -15 -55 -11 0 -15 12 -15 48 0 27 3 52 7 55 16 17 23 3 23 -48z m178 -8 c2 -46 0 -57 -13 -57 -12 0 -15 13 -15 61 0 81 24 77 28 -4z" fill="#101c33"/>
<path d="M22761 803 l0 -218 25 79 c13 44 26 81 28 83 4 4 26 -65 63 -190 2 -10 7 -17 9 -14 2 2 17 48 33 101 16 54 32 100 34 103 4 4 26 -60 64 -191 3 -10 9 -14 13 -10 10 10 180 450 180 464 0 6 -88 10 -225 10 l-225 0 1 -217z" fill="#101c33"/>
<path d="M23260 1011 c0 -15 171 -455 180 -465 4 -4 10 0 13 10 38 131 60 195 64 191 2 -3 18 -49 34 -103 16 -53 31 -99 33 -101 5 -5 156 446 156 465 0 9 -55 12 -240 12 -144 0 -240 -4 -240 -9z" fill="#101c33"/>
<path d="M24070 1008 c0 -7 35 -116 77 -243 l77 -230 34 110 c39 123 35 124 78 -19 25 -86 27 -89 40 -65 16 32 174 439 174 450 0 5 -108 9 -240 9 -185 0 -240 -3 -240 -12z" fill="#101c33"/>
<path d="M24599 998 c129 -334 174 -444 180 -451 4 -4 22 41 41 100 l33 108 35 -110 36 -110 28 95 c16 52 32 102 35 110 3 9 18 -21 34 -70 l27 -85 1 218 1 217 -230 0 -230 0 9 -22z" fill="#101c33"/>
<path d="M4470 975 c-11 -10 -51 -16 -143 -21 l-127 -7 0 -145 0 -144 158 7 c86 4 160 9 165 12 4 2 7 59 7 126 0 104 -3 127 -20 155 -23 37 -21 36 -40 17z m-80 -212 c0 -36 -3 -43 -20 -43 -17 0 -20 7 -20 53 0 30 3 57 7 61 14 14 33 -28 33 -71z m54 61 c3 -9 6 -33 6 -55 0 -32 -3 -39 -20 -39 -17 0 -20 7 -20 48 0 27 3 52 7 55 11 11 20 8 27 -9z m-184 -55 c0 -37 -4 -49 -15 -49 -11 0 -15 12 -15 48 0 27 3 52 6 55 15 14 24 -7 24 -54z m64 45 c3 -9 6 -33 6 -55 0 -32 -3 -39 -20 -39 -18 0 -20 7 -20 55 0 40 4 55 14 55 8 0 17 -7 20 -16z" fill="#101c33"/>
<path d="M23186 868 c-27 -68 -57 -145 -67 -171 l-19 -48 32 24 c54 40 97 59 121 51 12 -3 43 -22 69 -40 l48 -34 -21 53 c-12 28 -39 99 -61 157 -22 58 -43 111 -47 118 -5 8 -26 -34 -55 -110z" fill="#101c33"/>
<path d="M24530 883 c-23 -59 -53 -137 -67 -173 l-25 -65 24 21 c45 40 98 66 122 60 13 -3 46 -21 73 -39 l49 -33 -64 165 c-35 91 -65 167 -67 169 -2 2 -22 -45 -45 -105z" fill="#101c33"/>
<path d="M4833 944 c-14 -22 -19 -53 -21 -142 -2 -63 0 -118 5 -123 5 -5 64 -12 131 -16 l122 -6 0 124 c0 68 3 135 7 149 6 22 5 23 -9 12 -13 -10 -33 -11 -105 -1 -48 6 -93 16 -100 21 -8 6 -17 1 -30 -18z m94 -206 c-2 -18 -4 -6 -4 27 0 33 2 48 4 33 2 -15 2 -42 0 -60z m40 0 c-2 -18 -4 -6 -4 27 0 33 2 48 4 33 2 -15 2 -42 0 -60z m-67 22 c0 -27 -4 -50 -10 -50 -5 0 -10 23 -10 50 0 28 5 50 10 50 6 0 10 -22 10 -50z m107 -37 c-2 -16 -4 -3 -4 27 0 30 2 43 4 28 2 -16 2 -40 0 -55z" fill="#101c33"/>
<path d="M21632 865 c-546 -56 -995 -105 -999 -109 -3 -3 2 -6 13 -6 35 0 2049 181 2062 185 6 2 12 11 12 20 0 11 -11 15 -47 14 -27 -1 -495 -47 -1041 -104z" fill="#101c33"/>
<path d="M4140 952 c0 -11 -159 -34 -173 -25 -6 4 -8 -2 -4 -18 4 -13 7 -72 7 -130 l0 -106 43 -16 c39 -15 73 -16 145 -1 21 4 22 8 22 135 0 123 -8 169 -30 169 -6 0 -10 -4 -10 -8z m-103 -234 c-2 -18 -4 -6 -4 27 0 33 2 48 4 33 2 -15 2 -42 0 -60z m83 37 c0 -25 -4 -45 -10 -45 -5 0 -10 20 -10 45 0 25 5 45 10 45 6 0 10 -20 10 -45z m-40 -10 c0 -25 -4 -45 -10 -45 -5 0 -10 20 -10 45 0 25 5 45 10 45 6 0 10 -20 10 -45z" fill="#101c33"/>
<path d="M21690 821 l-955 -86 -3 -38 -3 -37 932 0 933 0 57 -40 c32 -22 60 -40 63 -40 3 0 6 74 6 165 l0 165 -37 -1 c-21 -1 -468 -40 -993 -88z" fill="#101c33"/>
<path d="M2317 869 c-11 -6 -32 -9 -48 -7 -23 4 -29 1 -29 -14 0 -16 9 -18 65 -18 63 0 65 1 65 25 0 27 -21 33 -53 14z" fill="#101c33"/>
<path d="M19290 781 c0 -32 -3 -73 -6 -90 -6 -30 -5 -31 26 -31 32 0 33 1 26 38 -3 20 -6 61 -6 90 0 45 -3 52 -20 52 -18 0 -20 -7 -20 -59z" fill="#101c33"/>
<path d="M2587 823 c-14 -14 -7 -110 9 -124 13 -11 20 -8 47 23 18 20 43 40 57 43 26 8 70 43 70 57 0 10 -174 11 -183 1z" fill="#101c33"/>
<path d="M2914 811 c30 -33 68 -42 162 -39 88 3 89 3 89 28 l0 25 -134 3 c-133 3 -134 2 -117 -17z" fill="#101c33"/>
<path d="M2240 790 c0 -23 17 -25 72 -10 60 17 55 30 -11 30 -54 0 -61 -2 -61 -20z" fill="#101c33"/>
<path d="M2463 780 c23 -20 45 -30 66 -30 28 0 31 3 31 30 l0 30 -65 0 -66 0 34 -30z" fill="#101c33"/>
<path d="M19626 788 c-3 -13 -6 -47 -6 -75 l0 -53 39 0 39 0 7 66 c8 73 2 84 -46 84 -19 0 -28 -6 -33 -22z" fill="#101c33"/>
<path d="M19737 793 c-2 -5 -7 -36 -11 -70 l-7 -63 436 0 435 0 0 29 c0 16 7 45 15 64 8 20 15 39 15 42 0 8 -878 6 -883 -2z" fill="#101c33"/>
<path d="M3010 736 c0 -7 3 -28 6 -45 6 -29 9 -31 53 -31 25 0 60 7 76 16 26 13 36 14 69 3 34 -11 40 -11 44 1 3 8 19 27 35 43 l29 27 -156 0 c-126 0 -156 -3 -156 -14z" fill="#101c33"/>
<path d="M3477 705 c20 -25 40 -45 44 -45 4 0 16 16 28 35 13 22 28 35 41 35 11 0 20 5 20 10 0 6 -35 10 -85 10 l-86 0 38 -45z" fill="#101c33"/>
<path d="M20623 724 c-7 -3 -13 -19 -13 -35 0 -28 1 -29 51 -29 l50 0 -3 33 c-3 29 -6 32 -38 34 -19 1 -41 0 -47 -3z" fill="#101c33"/>
<path d="M4353 643 c-64 -3 -83 -7 -83 -18 0 -21 41 -55 66 -55 13 0 26 -4 29 -10 3 -5 17 -10 30 -10 37 0 55 -10 71 -41 10 -20 12 -35 6 -46 -7 -11 -4 -26 9 -48 19 -32 19 -32 -1 -58 -11 -14 -20 -32 -20 -41 0 -19 39 -22 45 -3 2 6 5 85 7 175 l3 162 -40 -2 c-22 -1 -77 -4 -122 -5z" fill="#101c33"/>
<path d="M4541 619 c-14 -39 -14 -338 -1 -359 7 -10 10 10 10 66 0 71 2 82 19 87 12 3 20 17 25 46 8 55 57 111 83 95 29 -18 63 -75 63 -106 0 -21 6 -31 20 -35 18 -5 20 -14 20 -88 0 -80 6 -95 36 -95 2 0 4 89 4 198 0 141 -3 201 -12 210 -8 8 -52 12 -134 12 l-122 0 -11 -31z" fill="#101c33"/>
<path d="M4840 419 l0 -227 48 -1 c26 0 54 -1 62 -2 8 -1 35 -1 59 -1 l44 2 -6 43 c-4 28 -1 48 9 61 11 15 14 56 14 177 l0 158 -42 5 c-24 3 -76 7 -115 9 l-73 3 0 -227z" fill="#101c33"/>
<path d="M18820 595 l0 -45 60 0 c51 0 62 -3 75 -23 24 -38 30 -109 11 -145 l-17 -32 -127 0 c-70 0 -190 -3 -267 -6 l-141 -7 -43 -64 c-23 -36 -41 -66 -39 -68 2 -1 109 26 238 61 129 35 241 64 248 64 6 0 12 -11 12 -25 l0 -25 1945 0 1945 0 0 133 0 132 -68 48 -67 47 -1882 0 -1883 0 0 -45z m500 -61 c11 -28 13 -117 4 -151 -6 -22 -10 -23 -139 -23 l-133 0 -11 46 c-9 35 -9 60 -1 100 l11 54 130 0 129 0 10 -26z m360 -10 c12 -35 9 -132 -5 -154 -4 -6 -58 -10 -135 -10 l-128 0 -11 31 c-14 40 -14 83 0 132 l10 37 129 0 128 0 12 -36z m356 25 c12 -20 16 -134 5 -161 l-11 -28 -129 0 -130 0 -10 38 c-14 47 -14 63 0 118 l11 44 129 0 c82 0 130 -4 135 -11z m364 -15 c6 -14 10 -47 10 -74 0 -27 -4 -60 -10 -74 l-10 -26 -130 0 -130 0 -6 28 c-3 15 -8 35 -11 45 -2 9 1 42 7 72 l11 55 130 0 129 0 10 -26z m356 15 c12 -20 16 -134 5 -161 l-11 -28 -129 0 -130 0 -10 38 c-14 47 -14 63 0 118 l11 44 129 0 c82 0 130 -4 135 -11z m373 -33 c14 -55 14 -71 0 -118 l-10 -38 -130 0 -129 0 -10 26 c-13 34 -13 103 1 143 l11 31 128 0 128 0 11 -44z m371 -11 c6 -30 9 -63 7 -72 -3 -10 -8 -30 -11 -45 l-6 -28 -130 0 -130 0 -10 26 c-6 14 -10 47 -10 74 0 27 4 60 10 74 l10 26 129 0 130 0 11 -55z m369 24 c14 -40 14 -109 1 -143 l-10 -26 -129 0 -130 0 -10 38 c-14 47 -14 63 0 118 l11 44 128 0 128 0 11 -31z m372 -11 c11 -41 7 -127 -6 -148 -8 -13 -262 -13 -270 0 -13 21 -17 107 -6 148 l12 42 129 0 129 0 12 -42z m369 16 c11 -28 13 -117 4 -151 -6 -22 -10 -23 -139 -23 l-133 0 -8 33 c-10 45 -8 107 5 140 l11 27 125 0 125 0 10 -26z" fill="#101c33"/>
<path d="M4083 623 c-13 -2 -23 -7 -23 -9 0 -17 25 -46 47 -55 21 -8 30 -6 50 12 12 13 23 31 23 41 0 14 -7 18 -37 17 -21 -1 -48 -4 -60 -6z" fill="#101c33"/>
<path d="M15686 598 c-3 -13 -6 -33 -6 -45 l0 -23 881 0 880 0 -3 43 -3 42 -871 3 -872 2 -6 -22z" fill="#101c33"/>
<path d="M9870 554 c-36 -13 -85 -32 -109 -41 -39 -14 -42 -17 -28 -28 10 -7 17 -22 17 -33 0 -18 -7 -21 -52 -24 -51 -3 -53 -4 -56 -33 l-3 -30 271 0 270 0 0 23 c0 21 4 22 78 22 75 0 79 1 100 30 43 58 35 66 -85 80 -60 6 -159 23 -220 36 -62 13 -114 24 -115 23 -2 0 -32 -11 -68 -25z" fill="#101c33"/>
<path d="M10700 485 l0 -75 85 0 c74 0 86 2 95 20 7 13 21 20 41 20 17 0 32 6 35 15 9 23 162 21 180 -2 12 -16 13 -10 14 40 l0 57 -225 0 -225 0 0 -75z" fill="#101c33"/>
<path d="M19267 188 c-4 -40 -3 -76 2 -81 10 -10 82 -5 81 6 0 4 0 39 0 77 l0 70 -39 0 -38 0 -6 -72z" fill="#101c33"/>
<path d="M19374 245 c-4 -9 -3 -45 1 -80 l7 -65 109 0 109 0 0 49 c0 27 -3 63 -6 80 l-6 31 -105 0 c-83 0 -105 -3 -109 -15z" fill="#101c33"/>
<path d="M19619 253 c-2 -20 2 -101 7 -126 5 -24 10 -27 45 -27 l40 0 -3 78 -3 77 -42 3 c-24 2 -43 0 -44 -5z" fill="#101c33"/>
<path d="M19730 196 c0 -106 -45 -96 431 -96 l419 0 0 80 0 80 -425 0 -425 0 0 -64z" fill="#101c33"/>
<path d="M20606 188 c-3 -39 -2 -76 2 -80 5 -5 25 -8 43 -6 32 3 35 6 46 53 6 28 12 62 12 78 1 26 -1 27 -48 27 l-48 0 -7 -72z" fill="#101c33"/>
<path d="M20736 248 c-3 -7 -7 -33 -11 -58 -3 -25 -8 -55 -12 -68 l-5 -22 262 0 263 0 111 65 c61 35 120 71 131 79 18 14 -18 15 -358 16 -294 0 -378 -3 -381 -12z" fill="#101c33"/>
</g>
</svg>